<svg width="405" height="405" viewBox="0 0 405 405" fill="none" xmlns="http://www.w3.org/2000/svg">
<mask id="mask0_1_28984" style="mask-type:luminance" maskUnits="userSpaceOnUse" x="-14" y="-14" width="433" height="433">
<path d="M-13.4961 -13.4978H418.431V418.429H-13.4961V-13.4978Z" fill="white"/>
</mask>
<g mask="url(#mask0_1_28984)">
<mask id="mask1_1_28984" style="mask-type:luminance" maskUnits="userSpaceOnUse" x="-14" y="-14" width="433" height="433">
<path d="M-13.4963 -13.4978H418.431V418.429H-13.4963V-13.4978Z" fill="white"/>
</mask>
<g mask="url(#mask1_1_28984)">
<g opacity="0.999996">
<path d="M64.2133 158.899C65.3071 158.899 66.1951 160.658 66.1951 162.824C66.1951 164.99 65.3071 166.749 64.2133 166.749C63.1195 166.749 62.2314 164.99 62.2314 162.824C62.2314 160.658 63.1195 158.899 64.2133 158.899Z" fill="#FFD03B"/>
</g>
<g opacity="0.999996">
<path d="M230.733 125.253L226.018 125.562L220.852 118.905L225.567 118.596L230.733 125.253Z" fill="#FFB43B"/>
</g>
<g opacity="0.999994">
<path d="M239.978 247.712L236.531 247.227L231.721 241.887L235.167 242.372L239.978 247.712Z" fill="#70E182"/>
</g>
<g opacity="0.999998">
<path d="M47.1179 325.458L43.883 326.255L41.1899 322.078L44.4248 321.281L47.1179 325.458Z" fill="#FFC23B"/>
</g>
<path d="M102.198 138.423L98.427 137.575L92.7012 131.52L96.4725 132.368L102.198 138.423Z" fill="#FFAE3B"/>
<g opacity="0.999996">
<path d="M316.61 209.141L312.539 208.218L306.347 201.677L310.418 202.6L316.61 209.141Z" fill="#FFCA3B"/>
</g>
<g opacity="0.999996">
<path d="M147.909 213.694L141.037 214.825L134.499 205.576L141.371 204.445L147.909 213.694Z" fill="#FF533B"/>
</g>
<g opacity="0.999994">
<path d="M312.293 108.027L321.826 109.893L315.818 117.078L312.293 108.027Z" fill="#FF6F3B"/>
</g>
<g opacity="0.999992">
<path d="M98.4099 205.433L109.522 210.009L104.881 215.56L98.4099 205.433Z" fill="#FF613B"/>
</g>
<path d="M280.289 294.436L287.862 297.904L285.044 301.274L280.289 294.436Z" fill="#FF6F3B"/>
<g opacity="0.999998">
<path d="M111.861 74.8066L106.716 75.5499L101.67 68.5568L106.815 67.8135L111.861 74.8066Z" fill="#70E182"/>
</g>
<g opacity="0.99999">
<path d="M292.068 117.147L287.214 119.121L284.306 113.372L289.16 111.398L292.068 117.147Z" fill="#FFCA3B"/>
</g>
<g opacity="0.999998">
<path d="M78.4809 214.699L86.6807 214.954L80.1842 222.724L78.4809 214.699Z" fill="#FBC752"/>
</g>
<path d="M305.673 341.144L313.771 342.074L308.022 348.949L305.673 341.144Z" fill="#FBCD52"/>
<g opacity="0.999996">
<path d="M202.482 113.392L210.311 116.527L206.953 120.542L202.482 113.392Z" fill="#FBCD52"/>
</g>
<path d="M116.552 301.712L123.382 305.554L121.543 307.753L116.552 301.712Z" fill="#FBB552"/>
<g opacity="0.999992">
<path d="M266.534 155.129L273.283 155.408L268.005 161.721L266.534 155.129Z" fill="#FBB552"/>
</g>
<g opacity="0.999998">
<path d="M285.446 73.5365C285.788 69.574 286.35 65.7137 287.109 62.1326" stroke="#FBD452" stroke-width="13.784"/>
</g>
<g opacity="0.999996">
<path d="M237.865 298.931C241.077 299.675 244.038 300.712 246.504 302.305" stroke="#70E182" stroke-width="16.9642"/>
</g>
<g opacity="0.999994">
<path d="M132.199 107.545C128.045 105.282 124.333 101.669 121.255 96.0872" stroke="#FBA352" stroke-width="8.03108"/>
</g>
<path d="M269.701 211.103C272.377 210.197 275.474 210.057 279.237 211.046" stroke="#FFAE3B" stroke-width="2.77402"/>
<g opacity="0.999996">
<path d="M78.049 309.59C78.1127 313.286 77.7382 317.263 77.0315 321.105" stroke="#FBB552" stroke-width="12.4886"/>
</g>
<path d="M54.3272 82.5059C50.0468 85.7267 45.9928 88.9217 41.5015 90.1624" stroke="#FFAE3B" stroke-width="5.80728"/>
</g>
<mask id="mask2_1_28984" style="mask-type:luminance" maskUnits="userSpaceOnUse" x="-14" y="-14" width="433" height="433">
<path d="M418.43 418.429H-13.4974V-13.4977H418.43V418.429Z" fill="white"/>
</mask>
<g mask="url(#mask2_1_28984)">
<g opacity="0.999997">
<path d="M307.903 247.119C306.159 247.119 304.744 245.55 304.744 243.619C304.744 241.687 306.159 240.119 307.903 240.119C309.646 240.119 311.062 241.687 311.062 243.619C311.062 245.55 309.646 247.119 307.903 247.119Z" fill="#FFAB23"/>
</g>
<g opacity="0.999988">
<path d="M214.01 197.295L212.654 192.537L217.439 183.994L218.795 188.752L214.01 197.295Z" fill="#70E182"/>
</g>
<g opacity="0.99999">
<path d="M331.562 120.028L328.395 114.531L334.255 106.177L337.422 111.674L331.562 120.028Z" fill="#FF9C23"/>
</g>
<g opacity="0.99999">
<path d="M94.3197 214.038L90.1671 207.931L96.8083 199.25L100.961 205.357L94.3197 214.038Z" fill="#FF9C23"/>
</g>
<g opacity="0.999997">
<path d="M256.373 225.718L254.647 218.963L261.4 206.645L263.126 213.4L256.373 225.718Z" fill="#70E182"/>
</g>
<g opacity="0.999994">
<path d="M274.1 250.858L274.153 263.55L265.935 260.575L274.1 250.858Z" fill="#70E182"/>
</g>
<g opacity="0.999997">
<path d="M124.228 133.718L123.128 142.399L119.515 141.091L124.228 133.718Z" fill="#FFB423"/>
</g>
<g opacity="0.999992">
<path d="M61.4917 105.06C61.5467 103.485 62.5336 102.24 63.6941 102.28C64.8546 102.321 65.7522 103.632 65.6972 105.206C65.6422 106.781 64.6553 108.026 63.4948 107.986C62.3343 107.945 61.4367 106.634 61.4917 105.06Z" fill="#FFA323"/>
</g>
<g opacity="0.999994">
<path d="M228.959 284.982L225.832 278.488L232.627 268.037L235.754 274.531L228.959 284.982Z" fill="#70E182"/>
</g>
<g opacity="0.999992">
<path d="M103.684 280.917L101.372 276.282L106.239 268.898L108.552 273.533L103.684 280.917Z" fill="#70E182"/>
</g>
<g opacity="0.999992">
<path d="M189.783 78.6651L187.131 74.9587L191.189 69.8141L193.841 73.5206L189.783 78.6651Z" fill="#FBC252"/>
</g>
<g opacity="0.0269673">
<path d="M189.895 161.825L191.685 172.087L181.95 168.563L189.895 161.825Z" fill="#FBC752"/>
</g>
<g opacity="0.999994">
<path d="M143.93 64.7265L145.579 70.6706L138.858 68.2374L143.93 64.7265Z" fill="#FBB052"/>
</g>
<g opacity="0.99999">
<path d="M185.305 288.113L189.333 295.415L177.537 291.145L185.305 288.113Z" fill="#70E182"/>
</g>
<g opacity="0.99999">
<path d="M244.597 102.164L245.476 112.931L237.03 109.873L244.597 102.164Z" fill="#FBAA52"/>
</g>
<g opacity="0.999994">
<path d="M163.671 247.207L162.502 258.315L157.459 256.49L163.671 247.207Z" fill="#70E182"/>
</g>
<g opacity="0.0269673">
<path d="M201.737 201.365C201.737 201.365 202.184 201.227 202.971 201.013" stroke="#FFD500" stroke-width="14.0718"/>
</g>
<g opacity="0.999994">
<path d="M180.254 173.165C179.433 170.122 176.979 168.072 172.167 167.897C165.55 167.657 160.718 169.73 156.792 172.815" stroke="#70E182" stroke-width="8.96104"/>
</g>
<g opacity="0.99999">
<path d="M324.258 293.708C331.49 312.774 348.717 307.082 345.841 299.49C344.039 294.732 333.804 300.085 326.164 307.639" stroke="#70E182" stroke-width="8.57306"/>
</g>
</g>
</g>
</svg>
