<svg width="16" height="16" viewBox="0 0 16 16" fill="none" xmlns="http://www.w3.org/2000/svg">
<circle cx="8" cy="8" r="7.5" fill="#FFF3F3" stroke="#E41D1D"/>
<mask id="path-2-inside-1_1_29421" fill="white">
<path d="M11.4769 5.14517H10.4774C10.464 5.14054 10.4501 5.13753 10.436 5.13614H9.37174V4.25348C9.3718 4.18714 9.3458 4.12346 9.29945 4.07608C9.25304 4.02871 9.18995 4.00138 9.12369 4H6.60672C6.53948 4 6.47501 4.02667 6.42752 4.07422C6.37997 4.12177 6.35324 4.18624 6.35324 4.25348V5.13614H5.29439C5.2803 5.13753 5.2664 5.14054 5.25303 5.14517H4.25347C4.16288 5.14517 4.07921 5.19345 4.03395 5.27188C3.98868 5.35031 3.98868 5.44691 4.03395 5.52535C4.07921 5.60378 4.16288 5.65211 4.25347 5.65211H5.06783L5.72585 11.7735C5.7329 11.8358 5.76263 11.8933 5.8094 11.9351C5.85611 11.9769 5.91661 11.9999 5.97932 12H9.75462C9.81668 11.9991 9.87627 11.9756 9.92233 11.9339C9.96831 11.8922 9.99751 11.8352 10.0045 11.7735L10.6625 5.66105H11.4769C11.5675 5.66105 11.6511 5.61277 11.6964 5.53434C11.7417 5.45591 11.7417 5.35924 11.6964 5.28087C11.6511 5.20244 11.5675 5.1541 11.4769 5.1541L11.4769 5.14517ZM6.86566 4.50695H8.86472V5.13614H6.86566V4.50695ZM9.52455 11.4894H6.20582L5.57663 5.66111H10.1537L9.52455 11.4894Z"/>
</mask>
<path d="M11.4769 5.14517H10.4774C10.464 5.14054 10.4501 5.13753 10.436 5.13614H9.37174V4.25348C9.3718 4.18714 9.3458 4.12346 9.29945 4.07608C9.25304 4.02871 9.18995 4.00138 9.12369 4H6.60672C6.53948 4 6.47501 4.02667 6.42752 4.07422C6.37997 4.12177 6.35324 4.18624 6.35324 4.25348V5.13614H5.29439C5.2803 5.13753 5.2664 5.14054 5.25303 5.14517H4.25347C4.16288 5.14517 4.07921 5.19345 4.03395 5.27188C3.98868 5.35031 3.98868 5.44691 4.03395 5.52535C4.07921 5.60378 4.16288 5.65211 4.25347 5.65211H5.06783L5.72585 11.7735C5.7329 11.8358 5.76263 11.8933 5.8094 11.9351C5.85611 11.9769 5.91661 11.9999 5.97932 12H9.75462C9.81668 11.9991 9.87627 11.9756 9.92233 11.9339C9.96831 11.8922 9.99751 11.8352 10.0045 11.7735L10.6625 5.66105H11.4769C11.5675 5.66105 11.6511 5.61277 11.6964 5.53434C11.7417 5.45591 11.7417 5.35924 11.6964 5.28087C11.6511 5.20244 11.5675 5.1541 11.4769 5.1541L11.4769 5.14517ZM6.86566 4.50695H8.86472V5.13614H6.86566V4.50695ZM9.52455 11.4894H6.20582L5.57663 5.66111H10.1537L9.52455 11.4894Z" fill="#E41D1D"/>
<path d="M11.4769 5.14517L12.4769 5.15033L12.4821 4.14517H11.4769V5.14517ZM10.4774 5.14517L10.1497 6.08996L10.3089 6.14517H10.4774V5.14517ZM10.436 5.13614L10.5338 4.14094L10.485 4.13614H10.436V5.13614ZM9.37174 5.13614H8.37174V6.13614H9.37174V5.13614ZM9.37174 4.25348L8.37174 4.25257V4.25348H9.37174ZM9.29945 4.07608L10.0143 3.37677L10.0138 3.37628L9.29945 4.07608ZM9.12369 4L9.14456 3.00022L9.13413 3H9.12369V4ZM6.42752 4.07422L7.13463 4.78132L7.13506 4.78089L6.42752 4.07422ZM6.35324 5.13614V6.13614H7.35324V5.13614H6.35324ZM5.29439 5.13614V4.13614H5.24536L5.19657 4.14094L5.29439 5.13614ZM5.25303 5.14517V6.14517H5.42153L5.58072 6.08996L5.25303 5.14517ZM4.03395 5.27188L4.90006 5.77174L4.9001 5.77167L4.03395 5.27188ZM4.03395 5.52535L3.16783 6.02519L3.16784 6.02521L4.03395 5.52535ZM5.06783 5.65211L6.0621 5.54523L5.96609 4.65211H5.06783V5.65211ZM5.72585 11.7735L4.73157 11.8804L4.73218 11.8858L5.72585 11.7735ZM5.8094 11.9351L5.14276 12.6805L5.14278 12.6805L5.8094 11.9351ZM5.97932 12L5.97836 13H5.97932V12ZM9.75462 12V13H9.7619L9.76917 12.9999L9.75462 12ZM9.92233 11.9339L10.5931 12.6755L10.5942 12.6746L9.92233 11.9339ZM10.0045 11.7735L10.9982 11.8859L10.9987 11.8805L10.0045 11.7735ZM10.6625 5.66105V4.66105H9.76432L9.6682 5.55402L10.6625 5.66105ZM11.6964 5.28087L10.8303 5.78073L10.8304 5.78101L11.6964 5.28087ZM11.4769 5.1541L10.4769 5.14895L10.4717 6.1541H11.4769V5.1541ZM6.86566 4.50695V3.50695H5.86566V4.50695H6.86566ZM8.86472 4.50695H9.86472V3.50695H8.86472V4.50695ZM8.86472 5.13614V6.13614H9.86472V5.13614H8.86472ZM6.86566 5.13614H5.86566V6.13614H6.86566V5.13614ZM9.52455 11.4894V12.4894H10.4224L10.5188 11.5967L9.52455 11.4894ZM6.20582 11.4894L5.2116 11.5967L5.30797 12.4894H6.20582V11.4894ZM5.57663 5.66111V4.66111H4.46286L4.58241 5.76844L5.57663 5.66111ZM10.1537 5.66111L11.1479 5.76843L11.2674 4.66111H10.1537V5.66111ZM11.4769 5.14517V4.14517H10.4774V5.14517V6.14517H11.4769V5.14517ZM10.4774 5.14517L10.805 4.20039C10.7155 4.16934 10.6244 4.14984 10.5338 4.14094L10.436 5.13614L10.3382 6.13135C10.2758 6.12522 10.2124 6.11173 10.1497 6.08996L10.4774 5.14517ZM10.436 5.13614V4.13614H9.37174V5.13614V6.13614H10.436V5.13614ZM9.37174 5.13614H10.3717V4.25348H9.37174H8.37174V5.13614H9.37174ZM9.37174 4.25348L10.3717 4.25438C10.372 3.92575 10.2432 3.61084 10.0143 3.37677L9.29945 4.07608L8.58463 4.77539C8.44834 4.63608 8.37156 4.44854 8.37174 4.25257L9.37174 4.25348ZM9.29945 4.07608L10.0138 3.37628C9.78467 3.14242 9.47279 3.00707 9.14456 3.00022L9.12369 4L9.10281 4.99978C8.90712 4.9957 8.7214 4.91501 8.58512 4.77589L9.29945 4.07608ZM9.12369 4V3H6.60672V4V5H9.12369V4ZM6.60672 4V3C6.27472 3 5.95552 3.13172 5.71998 3.36755L6.42752 4.07422L7.13506 4.78089C6.99451 4.92161 6.80424 5 6.60672 5V4ZM6.42752 4.07422L5.72041 3.36711C5.4855 3.60202 5.35324 3.92077 5.35324 4.25348H6.35324H7.35324C7.35324 4.45171 7.27443 4.64152 7.13463 4.78132L6.42752 4.07422ZM6.35324 4.25348H5.35324V5.13614H6.35324H7.35324V4.25348H6.35324ZM6.35324 5.13614V4.13614H5.29439V5.13614V6.13614H6.35324V5.13614ZM5.29439 5.13614L5.19657 4.14094C5.10603 4.14984 5.01485 4.16934 4.92534 4.20039L5.25303 5.14517L5.58072 6.08996C5.51794 6.11173 5.45457 6.12522 5.3922 6.13135L5.29439 5.13614ZM5.25303 5.14517V4.14517H4.25347V5.14517V6.14517H5.25303V5.14517ZM4.25347 5.14517V4.14517C3.80598 4.14517 3.39189 4.38375 3.1678 4.77209L4.03395 5.27188L4.9001 5.77167C4.76653 6.00314 4.51978 6.14517 4.25347 6.14517V5.14517ZM4.03395 5.27188L3.16784 4.77202C2.94405 5.15978 2.94406 5.63744 3.16783 6.02519L4.03395 5.52535L4.90006 5.0255C5.03331 5.25638 5.03332 5.54083 4.90006 5.77174L4.03395 5.27188ZM4.03395 5.52535L3.16784 6.02521C3.39167 6.41304 3.80547 6.65211 4.25347 6.65211V5.65211V4.65211C4.52029 4.65211 4.76675 4.79451 4.90006 5.02549L4.03395 5.52535ZM4.25347 5.65211V6.65211H5.06783V5.65211V4.65211H4.25347V5.65211ZM5.06783 5.65211L4.07356 5.75899L4.73158 11.8804L5.72585 11.7735L6.72013 11.6666L6.0621 5.54523L5.06783 5.65211ZM5.72585 11.7735L4.73218 11.8858C4.76687 12.1926 4.91333 12.4753 5.14276 12.6805L5.8094 11.9351L6.47605 11.1897C6.61193 11.3113 6.69893 11.479 6.71953 11.6612L5.72585 11.7735ZM5.8094 11.9351L5.14278 12.6805C5.37333 12.8867 5.67104 12.9997 5.97836 13L5.97932 12L5.98028 11C6.16217 11.0002 6.33889 11.0671 6.47603 11.1897L5.8094 11.9351ZM5.97932 12V13H9.75462V12V11H5.97932V12ZM9.75462 12L9.76917 12.9999C10.0751 12.9954 10.3677 12.8795 10.5931 12.6755L9.92233 11.9339L9.2515 11.1923C9.38487 11.0717 9.55831 11.0028 9.74008 11.0001L9.75462 12ZM9.92233 11.9339L10.5942 12.6746C10.8203 12.4695 10.9638 12.1891 10.9981 11.8859L10.0045 11.7735L9.01083 11.661C9.03118 11.4812 9.11635 11.3149 9.25048 11.1932L9.92233 11.9339ZM10.0045 11.7735L10.9987 11.8805L11.6567 5.76807L10.6625 5.66105L9.6682 5.55402L9.01023 11.6665L10.0045 11.7735ZM10.6625 5.66105V6.66105H11.4769V5.66105V4.66105H10.6625V5.66105ZM11.4769 5.66105V6.66105C11.9244 6.66105 12.3385 6.42247 12.5625 6.03413L11.6964 5.53434L10.8302 5.03455C10.9638 4.80308 11.2106 4.66105 11.4769 4.66105V5.66105ZM11.6964 5.53434L12.5625 6.03413C12.7862 5.64658 12.7864 5.16875 12.5623 4.78073L11.6964 5.28087L10.8304 5.78101C10.6969 5.54974 10.6971 5.26524 10.8302 5.03455L11.6964 5.53434ZM11.6964 5.28087L12.5625 4.78101C12.3387 4.39318 11.9249 4.1541 11.4769 4.1541V5.1541V6.1541C11.21 6.1541 10.9636 6.0117 10.8303 5.78073L11.6964 5.28087ZM11.4769 5.1541L12.4769 5.15926L12.4769 5.15033L11.4769 5.14517L10.4769 5.14001L10.4769 5.14895L11.4769 5.1541ZM6.86566 4.50695V5.50695H8.86472V4.50695V3.50695H6.86566V4.50695ZM8.86472 4.50695H7.86472V5.13614H8.86472H9.86472V4.50695H8.86472ZM8.86472 5.13614V4.13614H6.86566V5.13614V6.13614H8.86472V5.13614ZM6.86566 5.13614H7.86566V4.50695H6.86566H5.86566V5.13614H6.86566ZM9.52455 11.4894V10.4894H6.20582V11.4894V12.4894H9.52455V11.4894ZM6.20582 11.4894L7.20005 11.3821L6.57085 5.55378L5.57663 5.66111L4.58241 5.76844L5.2116 11.5967L6.20582 11.4894ZM5.57663 5.66111V6.66111H10.1537V5.66111V4.66111H5.57663V5.66111ZM10.1537 5.66111L9.15946 5.55379L8.53032 11.3821L9.52455 11.4894L10.5188 11.5967L11.1479 5.76843L10.1537 5.66111Z" fill="#E41D1D" mask="url(#path-2-inside-1_1_29421)"/>
<mask id="path-4-inside-2_1_29421" fill="white">
<path d="M7.86529 10.8963C7.93252 10.8963 7.99699 10.8695 8.04454 10.822C8.09209 10.7745 8.11876 10.71 8.11876 10.6428V6.50797C8.11876 6.41738 8.07049 6.33371 7.99205 6.28845C7.91362 6.24312 7.81696 6.24312 7.73852 6.28845C7.66009 6.33371 7.61182 6.41738 7.61182 6.50797V10.6428C7.61182 10.71 7.63848 10.7745 7.68603 10.822C7.73359 10.8695 7.79805 10.8963 7.86529 10.8963H7.86529Z"/>
</mask>
<path d="M7.86529 10.8963C7.93252 10.8963 7.99699 10.8695 8.04454 10.822C8.09209 10.7745 8.11876 10.71 8.11876 10.6428V6.50797C8.11876 6.41738 8.07049 6.33371 7.99205 6.28845C7.91362 6.24312 7.81696 6.24312 7.73852 6.28845C7.66009 6.33371 7.61182 6.41738 7.61182 6.50797V10.6428C7.61182 10.71 7.63848 10.7745 7.68603 10.822C7.73359 10.8695 7.79805 10.8963 7.86529 10.8963H7.86529Z" fill="#E41D1D"/>
<path d="M8.04454 10.822L8.75118 11.5296L8.75165 11.5291L8.04454 10.822ZM7.99205 6.28845L7.4917 7.15427L7.49227 7.1546L7.99205 6.28845ZM7.73852 6.28845L8.23838 7.15456L8.23887 7.15428L7.73852 6.28845ZM7.68603 10.822L6.9789 11.5291L6.97937 11.5296L7.68603 10.822ZM7.86529 10.8963V11.8963C8.19794 11.8963 8.51643 11.764 8.75118 11.5296L8.04454 10.822L7.33791 10.1145C7.47755 9.975 7.66711 9.89625 7.86529 9.89625V10.8963ZM8.04454 10.822L8.75165 11.5291C8.98699 11.2938 9.11876 10.9749 9.11876 10.6428H8.11876H7.11876C7.11876 10.4452 7.1972 10.2552 7.33744 10.1149L8.04454 10.822ZM8.11876 10.6428H9.11876V6.50797H8.11876H7.11876V10.6428H8.11876ZM8.11876 6.50797H9.11876C9.11876 6.06048 8.88019 5.64639 8.49184 5.4223L7.99205 6.28845L7.49227 7.1546C7.26078 7.02103 7.11876 6.77428 7.11876 6.50797H8.11876ZM7.99205 6.28845L8.49241 5.42263C8.10439 5.19839 7.62618 5.1984 7.23818 5.42262L7.73852 6.28845L8.23887 7.15428C8.00773 7.28784 7.72285 7.28785 7.4917 7.15427L7.99205 6.28845ZM7.73852 6.28845L7.23866 5.42234C6.85043 5.6464 6.61182 6.06043 6.61182 6.50797H7.61182H8.61182C8.61182 6.77434 8.46975 7.02103 8.23838 7.15456L7.73852 6.28845ZM7.61182 6.50797H6.61182V10.6428H7.61182H8.61182V6.50797H7.61182ZM7.61182 10.6428H6.61182C6.61182 10.9749 6.7436 11.2938 6.9789 11.5291L7.68603 10.822L8.39316 10.1149C8.53337 10.2552 8.61182 10.4451 8.61182 10.6428H7.61182ZM7.68603 10.822L6.97937 11.5296C7.21414 11.7641 7.53265 11.8963 7.86529 11.8963V10.8963V9.89625C8.06346 9.89625 8.25303 9.975 8.39269 10.1145L7.68603 10.822ZM7.86529 10.8963V9.89625H7.86529V10.8963V11.8963H7.86529V10.8963Z" fill="#E41D1D" mask="url(#path-4-inside-2_1_29421)"/>
<mask id="path-6-inside-3_1_29421" fill="white">
<path d="M6.8674 10.8944H6.87817C6.94511 10.8916 7.00819 10.8624 7.0537 10.8132C7.09915 10.7641 7.12334 10.6989 7.12088 10.6319L6.96805 6.49713L6.96811 6.49707C6.96672 6.42935 6.93777 6.36506 6.88787 6.3192C6.83791 6.27339 6.77146 6.24997 6.7038 6.25437C6.63687 6.2572 6.57379 6.28639 6.52834 6.33557C6.48283 6.38475 6.45869 6.44994 6.4611 6.51688L6.61393 10.6517C6.61712 10.7169 6.64517 10.7784 6.69236 10.8235C6.73949 10.8686 6.80215 10.894 6.8674 10.8944L6.8674 10.8944Z"/>
</mask>
<path d="M6.8674 10.8944H6.87817C6.94511 10.8916 7.00819 10.8624 7.0537 10.8132C7.09915 10.7641 7.12334 10.6989 7.12088 10.6319L6.96805 6.49713L6.96811 6.49707C6.96672 6.42935 6.93777 6.36506 6.88787 6.3192C6.83791 6.27339 6.77146 6.24997 6.7038 6.25437C6.63687 6.2572 6.57379 6.28639 6.52834 6.33557C6.48283 6.38475 6.45869 6.44994 6.4611 6.51688L6.61393 10.6517C6.61712 10.7169 6.64517 10.7784 6.69236 10.8235C6.73949 10.8686 6.80215 10.894 6.8674 10.8944L6.8674 10.8944Z" fill="#E41D1D"/>
<path d="M6.8674 10.8944L5.87236 10.7949L5.76241 11.8944H6.8674V10.8944ZM6.87817 10.8944V11.8944H6.89885L6.9195 11.8935L6.87817 10.8944ZM7.0537 10.8132L7.78763 11.4925L7.78813 11.4919L7.0537 10.8132ZM7.12088 10.6319L8.1202 10.5951L8.12019 10.595L7.12088 10.6319ZM6.96805 6.49713L6.26094 5.79002L5.95262 6.09834L5.96873 6.53406L6.96805 6.49713ZM6.96811 6.49707L7.67521 7.20417L7.97661 6.90278L7.9679 6.47663L6.96811 6.49707ZM6.88787 6.3192L7.56461 5.58298L7.56368 5.58212L6.88787 6.3192ZM6.7038 6.25437L6.74603 7.25348L6.75734 7.253L6.76863 7.25227L6.7038 6.25437ZM6.52834 6.33557L7.26232 7.01474L7.26273 7.01429L6.52834 6.33557ZM6.4611 6.51688L5.46175 6.55281L5.46178 6.55381L6.4611 6.51688ZM6.61393 10.6517L5.61454 10.6886L5.61513 10.7006L6.61393 10.6517ZM6.69236 10.8235L7.38361 10.1009L7.38358 10.1009L6.69236 10.8235ZM6.8674 10.8944L7.86244 10.9939L7.97177 9.90049L6.87295 9.89439L6.8674 10.8944ZM6.8674 10.8944V11.8944H6.87817V10.8944V9.89438H6.8674V10.8944ZM6.87817 10.8944L6.9195 11.8935C7.25109 11.8798 7.563 11.7352 7.78763 11.4925L7.0537 10.8132L6.31977 10.134C6.45338 9.98964 6.63912 9.90341 6.83684 9.89523L6.87817 10.8944ZM7.0537 10.8132L7.78813 11.4919C8.01256 11.2491 8.13242 10.9268 8.1202 10.5951L7.12088 10.6319L6.12155 10.6688C6.11426 10.471 6.18574 10.2791 6.31927 10.1345L7.0537 10.8132ZM7.12088 10.6319L8.12019 10.595L7.96736 6.46019L6.96805 6.49713L5.96873 6.53406L6.12156 10.6689L7.12088 10.6319ZM6.96805 6.49713L7.67515 7.20423L7.67521 7.20417L6.96811 6.49707L6.261 5.78996L6.26094 5.79002L6.96805 6.49713ZM6.96811 6.49707L7.9679 6.47663C7.96095 6.13675 7.81566 5.81374 7.56461 5.58298L6.88787 6.3192L6.21113 7.05542C6.05987 6.91638 5.97249 6.72195 5.96832 6.51751L6.96811 6.49707ZM6.88787 6.3192L7.56368 5.58212C7.3128 5.3521 6.97885 5.23439 6.63898 5.25647L6.7038 6.25437L6.76863 7.25227C6.56407 7.26555 6.36302 7.19468 6.21206 7.05627L6.88787 6.3192ZM6.7038 6.25437L6.66158 5.25526C6.33077 5.26924 6.01881 5.41354 5.79395 5.65684L6.52834 6.33557L7.26273 7.01429C7.12876 7.15925 6.94297 7.24515 6.74603 7.25348L6.7038 6.25437ZM6.52834 6.33557L5.79436 5.6564C5.56903 5.89991 5.44986 6.22233 5.46175 6.55281L6.4611 6.51688L7.46046 6.48094C7.46753 6.67754 7.39663 6.86959 7.26232 7.01474L6.52834 6.33557ZM6.4611 6.51688L5.46178 6.55381L5.61461 10.6886L6.61393 10.6517L7.61325 10.6147L7.46042 6.47994L6.4611 6.51688ZM6.61393 10.6517L5.61513 10.7006C5.63082 11.0211 5.76876 11.3239 6.00115 11.5462L6.69236 10.8235L7.38358 10.1009C7.52158 10.2329 7.60343 10.4126 7.61274 10.6028L6.61393 10.6517ZM6.69236 10.8235L6.00112 11.5461C6.23259 11.7676 6.54047 11.8926 6.86185 11.8944L6.8674 10.8944L6.87295 9.89439C7.06384 9.89545 7.2464 9.96966 7.38361 10.1009L6.69236 10.8235ZM6.8674 10.8944L5.87236 10.7949L5.87236 10.7949L6.8674 10.8944L7.86243 10.9939L7.86244 10.9939L6.8674 10.8944Z" fill="#E41D1D" mask="url(#path-6-inside-3_1_29421)"/>
<mask id="path-8-inside-4_1_29421" fill="white">
<path d="M8.85396 10.8944H8.86293C8.92975 10.8959 8.99445 10.8711 9.04321 10.8254C9.0919 10.7797 9.1208 10.7166 9.12362 10.6499L9.27646 6.51507H9.2764C9.27886 6.44814 9.25466 6.38295 9.20922 6.33377C9.16371 6.28459 9.10063 6.2554 9.03369 6.25257C8.96525 6.24553 8.89699 6.26762 8.84565 6.31348C8.79431 6.35929 8.76469 6.42466 8.76403 6.49353L8.60939 10.6283H8.60945C8.60602 10.6962 8.62998 10.7626 8.67597 10.8126C8.7219 10.8626 8.78606 10.8921 8.85396 10.8944L8.85396 10.8944Z"/>
</mask>
<path d="M8.85396 10.8944H8.86293C8.92975 10.8959 8.99445 10.8711 9.04321 10.8254C9.0919 10.7797 9.1208 10.7166 9.12362 10.6499L9.27646 6.51507H9.2764C9.27886 6.44814 9.25466 6.38295 9.20922 6.33377C9.16371 6.28459 9.10063 6.2554 9.03369 6.25257C8.96525 6.24553 8.89699 6.26762 8.84565 6.31348C8.79431 6.35929 8.76469 6.42466 8.76403 6.49353L8.60939 10.6283H8.60945C8.60602 10.6962 8.62998 10.7626 8.67597 10.8126C8.7219 10.8626 8.78606 10.8921 8.85396 10.8944L8.85396 10.8944Z" fill="#E41D1D"/>
<path d="M8.85396 10.8944L7.87616 11.1039L8.04555 11.8944H8.85396V10.8944ZM8.86293 10.8944L8.88545 9.89464L8.87419 9.89439H8.86293V10.8944ZM9.04321 10.8254L9.72701 11.5551L9.7279 11.5542L9.04321 10.8254ZM9.12362 10.6499L10.1227 10.6922L10.1229 10.6868L9.12362 10.6499ZM9.27646 6.51507L10.2758 6.55201L10.3141 5.51507H9.27646V6.51507ZM9.2764 6.51507L8.27707 6.47823L8.23884 7.51507H9.2764V6.51507ZM9.20922 6.33377L9.94369 5.65512L9.9432 5.6546L9.20922 6.33377ZM9.03369 6.25257L8.93133 7.24732L8.96133 7.2504L8.99146 7.25168L9.03369 6.25257ZM8.84565 6.31348L9.51138 7.05968L9.51187 7.05924L8.84565 6.31348ZM8.76403 6.49353L9.76333 6.5309L9.76385 6.51703L9.76398 6.50315L8.76403 6.49353ZM8.60939 10.6283L7.61009 10.591L7.5713 11.6283H8.60939V10.6283ZM8.60945 10.6283L9.60818 10.6788L9.66131 9.62833H8.60945V10.6283ZM8.67597 10.8126L9.41257 10.1363L9.41213 10.1358L8.67597 10.8126ZM8.85396 10.8944L9.83176 10.6849L9.66813 9.92124L8.88762 9.89495L8.85396 10.8944ZM8.85396 10.8944V11.8944H8.86293V10.8944V9.89439H8.85396V10.8944ZM8.86293 10.8944L8.84041 11.8941C9.16949 11.9015 9.48764 11.7794 9.727 11.5551L9.04321 10.8254L8.35941 10.0957C8.50127 9.9628 8.69 9.89024 8.88545 9.89464L8.86293 10.8944ZM9.04321 10.8254L9.7279 11.5542C9.96688 11.3297 10.1088 11.0204 10.1227 10.6922L9.12362 10.6499L8.12452 10.6075C8.13277 10.4129 8.21693 10.2296 8.35852 10.0966L9.04321 10.8254ZM9.12362 10.6499L10.1229 10.6868L10.2758 6.55201L9.27646 6.51507L8.27714 6.47814L8.12431 10.6129L9.12362 10.6499ZM9.27646 6.51507V5.51507H9.2764V6.51507V7.51507H9.27646V6.51507ZM9.2764 6.51507L10.2757 6.55192C10.2879 6.2202 10.1681 5.89794 9.94369 5.65512L9.20922 6.33377L8.47475 7.01241C8.34128 6.86796 8.26978 6.67608 8.27707 6.47823L9.2764 6.51507ZM9.20922 6.33377L9.9432 5.6546C9.7185 5.41177 9.40681 5.26745 9.07592 5.25346L9.03369 6.25257L8.99146 7.25168C8.79445 7.24335 8.60893 7.15741 8.47524 7.01294L9.20922 6.33377ZM9.03369 6.25257L9.13605 5.25782C8.78794 5.222 8.44065 5.33437 8.17943 5.56773L8.84565 6.31348L9.51187 7.05924C9.35334 7.20086 9.14257 7.26905 8.93133 7.24732L9.03369 6.25257ZM8.84565 6.31348L8.17992 5.56729C7.91797 5.80099 7.76744 6.13399 7.76407 6.48391L8.76403 6.49353L9.76398 6.50315C9.76194 6.71533 9.67064 6.91759 9.51138 7.05968L8.84565 6.31348ZM8.76403 6.49353L7.76473 6.45615L7.61009 10.591L8.60939 10.6283L9.6087 10.6657L9.76333 6.5309L8.76403 6.49353ZM8.60939 10.6283V11.6283H8.60945V10.6283V9.62833H8.60939V10.6283ZM8.60945 10.6283L7.61073 10.5778C7.59376 10.9134 7.71227 11.2419 7.93981 11.4894L8.67597 10.8126L9.41213 10.1358C9.54769 10.2832 9.61829 10.4789 9.60818 10.6788L8.60945 10.6283ZM8.67597 10.8126L7.93937 11.4889C8.16681 11.7366 8.48428 11.8825 8.8203 11.8938L8.85396 10.8944L8.88762 9.89495C9.08784 9.90169 9.27699 9.98859 9.41257 10.1363L8.67597 10.8126ZM8.85396 10.8944L7.87616 11.1039L7.87616 11.1039L8.85396 10.8944L9.83177 10.6849L9.83176 10.6849L8.85396 10.8944Z" fill="#E41D1D" mask="url(#path-8-inside-4_1_29421)"/>
</svg>
