<svg width="271" height="321" viewBox="0 0 271 321" fill="none" xmlns="http://www.w3.org/2000/svg">
<path d="M42.1651 0.473755H14.6867C6.83712 0.473755 0.473755 6.8371 0.473755 14.6867V42.1651" stroke="#407BFF" stroke-width="0.947531"/>
<path d="M270.52 42.1651L270.52 14.6867C270.52 6.83712 264.157 0.473755 256.307 0.473754L228.829 0.473753" stroke="#407BFF" stroke-width="0.947531"/>
<path d="M0.473753 278.782L0.473754 306.261C0.473755 314.11 6.8371 320.474 14.6867 320.474L42.1651 320.474" stroke="#407BFF" stroke-width="0.947531"/>
<path d="M228.829 320.474L256.307 320.474C264.157 320.474 270.52 314.11 270.52 306.261L270.52 278.782" stroke="#407BFF" stroke-width="0.947531"/>
<g clip-path="url(#clip0_1_28902)">
<path d="M189.991 100.63L189.951 100.852L189.151 101.436L161.74 87.4337L161.288 87.2027H111.429L111.115 87.36L83.7435 101.048L83.5863 100.021C86.8388 93.3933 91.4572 86.8195 98.0408 81.3659C116.2 66.3169 139.022 68.3362 144.839 69.024C144.839 69.024 175.03 72.6303 189.991 100.63Z" fill="#161819" stroke="#407BFF" stroke-width="0.2" stroke-miterlimit="10"/>
<path d="M121.747 128.965L83.9302 102.271L83.7435 101.048L111.115 87.36L121.747 128.965Z" fill="#161819"/>
<path d="M121.624 128.488L121.747 128.965L121.344 128.68" stroke="#407BFF" stroke-width="0.2" stroke-miterlimit="10"/>
<path d="M120.558 128.124L84.726 102.831" stroke="#407BFF" stroke-width="0.2" stroke-miterlimit="10"/>
<path d="M84.333 102.551L83.9301 102.271L83.8564 101.785" stroke="#407BFF" stroke-width="0.2" stroke-miterlimit="10"/>
<path d="M83.8171 101.529L83.7434 101.048L84.1807 100.827" stroke="#407BFF" stroke-width="0.2" stroke-miterlimit="10"/>
<path d="M85.0356 100.399L110.25 87.7922" stroke="#407BFF" stroke-width="0.2" stroke-miterlimit="10"/>
<path d="M110.677 87.5762L111.115 87.36L111.237 87.8366" stroke="#407BFF" stroke-width="0.2" stroke-miterlimit="10"/>
<path d="M111.478 88.7798L121.506 128.016" stroke="#407BFF" stroke-width="0.2" stroke-miterlimit="10"/>
<path d="M90.3566 143.704L76.5261 165.189C75.3272 156.144 75.1258 149.615 75.0718 146.652C75.0718 146.652 75.0472 145.36 75.0619 143.36C75.0767 140.319 75.1798 135.651 75.5631 131.421C76.0347 126.208 77.1549 113.916 82.8689 101.52L83.9302 102.271L90.3124 143.704H90.3566Z" fill="#161819" stroke="#407BFF" stroke-width="0.2" stroke-miterlimit="10"/>
<path d="M83.9302 102.271L82.8689 101.52C82.8689 101.52 82.8837 101.49 82.8935 101.471C83.1146 100.989 83.3455 100.503 83.5863 100.021L83.7435 101.048L83.9302 102.271Z" fill="#161819" stroke="#407BFF" stroke-width="0.2" stroke-miterlimit="10"/>
<path d="M195.685 165.155C193.951 178.976 192.206 189.858 190.556 198.427C188.659 208.258 186.881 215.038 185.372 219.696L161.052 180.062L195.685 165.155Z" fill="#161819" stroke="#407BFF" stroke-width="0.2" stroke-miterlimit="10"/>
<path d="M185.372 219.696C182.577 228.333 180.705 229.685 180.705 229.685C180.705 229.685 158.989 256.216 148.966 259.655H122.238L103.568 243.933C100.453 240.936 95.7955 235.9 91.7765 228.702C90.1896 225.852 89.2119 223.568 88.2489 220.202L110.447 226.687C110.039 233.993 109.626 241.294 109.218 248.6C118.288 246.026 127.363 243.456 136.432 240.882L164.246 247.618C163.661 240.503 163.076 233.389 162.492 226.275L185.372 219.696Z" fill="#161819" stroke="#407BFF" stroke-width="0.2" stroke-miterlimit="10"/>
<path d="M136.432 240.882L163.317 247.372L162.492 226.275C163.076 233.389 163.661 240.503 164.246 247.618L136.432 240.882Z" fill="white" stroke="#407BFF" stroke-width="0.2" stroke-miterlimit="10"/>
<path d="M164.246 247.618L136.432 240.882L159.578 227.719L161.715 226.496H161.72L162.492 226.275C163.076 233.389 163.661 240.503 164.246 247.618Z" fill="#161819" stroke="#407BFF" stroke-width="0.2" stroke-miterlimit="10"/>
<path d="M110.643 226.23L110.618 226.781L110.447 226.687L110.643 226.23Z" fill="white" stroke="#407BFF" stroke-width="0.2" stroke-miterlimit="10"/>
<path d="M162.492 226.275L161.72 226.496H161.715L161.052 226.687L147.055 192.177L161.052 180.062L162.413 224.211L162.492 226.275Z" fill="#161819"/>
<path d="M162.472 225.784L162.492 226.275L162.02 226.408" stroke="#407BFF" stroke-width="0.2" stroke-miterlimit="10"/>
<path d="M161.524 226.55L161.052 226.688L160.865 226.231" stroke="#407BFF" stroke-width="0.2" stroke-miterlimit="10"/>
<path d="M160.497 225.322L147.423 193.086" stroke="#407BFF" stroke-width="0.2" stroke-miterlimit="10"/>
<path d="M147.241 192.629L147.054 192.177L147.428 191.853" stroke="#407BFF" stroke-width="0.2" stroke-miterlimit="10"/>
<path d="M148.204 191.18L160.291 180.72" stroke="#407BFF" stroke-width="0.2" stroke-miterlimit="10"/>
<path d="M160.679 180.381L161.052 180.062L161.067 180.553" stroke="#407BFF" stroke-width="0.2" stroke-miterlimit="10"/>
<path d="M161.096 181.511L162.413 224.211L162.452 225.302" stroke="#407BFF" stroke-width="0.2" stroke-miterlimit="10"/>
<path d="M189.151 101.436L151.373 128.965L161.74 87.4337L189.151 101.436Z" fill="#161819"/>
<path d="M188.713 101.21L189.151 101.436L188.753 101.726" stroke="#407BFF" stroke-width="0.2" stroke-miterlimit="10"/>
<path d="M187.966 102.296L152.164 128.385" stroke="#407BFF" stroke-width="0.2" stroke-miterlimit="10"/>
<path d="M151.771 128.675L151.373 128.965L151.491 128.488" stroke="#407BFF" stroke-width="0.2" stroke-miterlimit="10"/>
<path d="M151.727 127.545L161.504 88.382" stroke="#407BFF" stroke-width="0.2" stroke-miterlimit="10"/>
<path d="M161.622 87.9103L161.74 87.4337L162.177 87.6548" stroke="#407BFF" stroke-width="0.2" stroke-miterlimit="10"/>
<path d="M163.032 88.0922L188.286 100.994" stroke="#407BFF" stroke-width="0.2" stroke-miterlimit="10"/>
<path d="M198.048 142.496C197.935 144.849 197.744 147.276 197.473 149.777C196.903 155.058 196.329 159.991 195.754 164.6L181.25 143.704H182.695L189.794 101.765L190.85 102.301C195.847 112.393 198.888 125.496 198.048 142.496Z" fill="#161819" stroke="#407BFF" stroke-width="0.2" stroke-miterlimit="10"/>
<path d="M190.85 102.301L189.794 101.765L189.151 101.436L189.951 100.851L189.991 100.63C190.015 100.675 190.04 100.724 190.064 100.768C190.33 101.269 190.595 101.78 190.85 102.301Z" fill="#161819" stroke="#407BFF" stroke-width="0.2" stroke-miterlimit="10"/>
<path d="M161.74 87.4336L151.373 128.965H121.747L111.115 87.3599L111.429 87.2026H161.288L161.74 87.4336Z" fill="#161819"/>
<path d="M161.303 87.2075L161.74 87.4335L161.622 87.9101" stroke="#407BFF" stroke-width="0.2" stroke-miterlimit="10"/>
<path d="M161.386 88.8534L151.609 128.016" stroke="#407BFF" stroke-width="0.2" stroke-miterlimit="10"/>
<path d="M151.491 128.488L151.373 128.964H150.882" stroke="#407BFF" stroke-width="0.2" stroke-miterlimit="10"/>
<path d="M149.894 128.964H122.734" stroke="#407BFF" stroke-width="0.2" stroke-miterlimit="10"/>
<path d="M122.238 128.964H121.747L121.624 128.488" stroke="#407BFF" stroke-width="0.2" stroke-miterlimit="10"/>
<path d="M121.383 127.54L111.355 88.308" stroke="#407BFF" stroke-width="0.2" stroke-miterlimit="10"/>
<path d="M111.238 87.8364L111.115 87.3599L111.429 87.2026H111.567" stroke="#407BFF" stroke-width="0.2" stroke-miterlimit="10"/>
<path d="M112.544 87.2025H160.816" stroke="#407BFF" stroke-width="0.2" stroke-miterlimit="10"/>
<path d="M189.794 101.765L182.695 143.704H162.413L161.73 142.795L151.373 128.965L189.151 101.436L189.794 101.765Z" fill="#161819"/>
<path d="M188.753 101.726L189.151 101.436L189.794 101.765L189.711 102.247" stroke="#407BFF" stroke-width="0.2" stroke-miterlimit="10"/>
<path d="M189.549 103.2L182.857 142.741" stroke="#407BFF" stroke-width="0.2" stroke-miterlimit="10"/>
<path d="M182.778 143.218L182.695 143.704H182.203" stroke="#407BFF" stroke-width="0.2" stroke-miterlimit="10"/>
<path d="M181.186 143.704H163.41" stroke="#407BFF" stroke-width="0.2" stroke-miterlimit="10"/>
<path d="M162.904 143.704H162.413L162.118 143.311" stroke="#407BFF" stroke-width="0.2" stroke-miterlimit="10"/>
<path d="M161.504 142.491L151.973 129.766" stroke="#407BFF" stroke-width="0.2" stroke-miterlimit="10"/>
<path d="M151.668 129.358L151.373 128.965L151.771 128.675" stroke="#407BFF" stroke-width="0.2" stroke-miterlimit="10"/>
<path d="M152.557 128.1L188.36 102.011" stroke="#407BFF" stroke-width="0.2" stroke-miterlimit="10"/>
<path d="M189.951 100.851L189.794 101.765" stroke="#407BFF" stroke-width="0.2" stroke-miterlimit="10"/>
<path d="M76.4916 165.248L73.5978 169.744" stroke="#407BFF" stroke-width="0.2" stroke-miterlimit="10"/>
<path d="M161.73 142.795L136.56 166.305L110.908 142.515L121.747 128.965H151.373L161.73 142.795Z" fill="#161819"/>
<path d="M161.435 142.402L161.73 142.795L161.372 143.129" stroke="#407BFF" stroke-width="0.2" stroke-miterlimit="10"/>
<path d="M160.674 143.783L137.268 165.641" stroke="#407BFF" stroke-width="0.2" stroke-miterlimit="10"/>
<path d="M136.919 165.966L136.56 166.305L136.201 165.971" stroke="#407BFF" stroke-width="0.2" stroke-miterlimit="10"/>
<path d="M135.489 165.307L111.626 143.178" stroke="#407BFF" stroke-width="0.2" stroke-miterlimit="10"/>
<path d="M111.267 142.849L110.908 142.515L111.213 142.132" stroke="#407BFF" stroke-width="0.2" stroke-miterlimit="10"/>
<path d="M111.817 141.375L121.138 129.721" stroke="#407BFF" stroke-width="0.2" stroke-miterlimit="10"/>
<path d="M121.442 129.348L121.747 128.965H122.238" stroke="#407BFF" stroke-width="0.2" stroke-miterlimit="10"/>
<path d="M123.226 128.965H150.386" stroke="#407BFF" stroke-width="0.2" stroke-miterlimit="10"/>
<path d="M150.882 128.965H151.373L151.668 129.358" stroke="#407BFF" stroke-width="0.2" stroke-miterlimit="10"/>
<path d="M152.243 130.124L161.15 142.014" stroke="#407BFF" stroke-width="0.2" stroke-miterlimit="10"/>
<path d="M198.191 168.108L196.034 165.003" stroke="#407BFF" stroke-width="0.2" stroke-miterlimit="10"/>
<path d="M185.372 219.696L162.492 226.275L162.413 224.211L161.052 180.062L185.372 219.696Z" fill="#161819"/>
<path d="M185.117 219.274L185.372 219.696L184.901 219.829" stroke="#407BFF" stroke-width="0.2" stroke-miterlimit="10"/>
<path d="M183.947 220.104L163.44 226" stroke="#407BFF" stroke-width="0.2" stroke-miterlimit="10"/>
<path d="M162.963 226.137L162.492 226.275L162.472 225.784" stroke="#407BFF" stroke-width="0.2" stroke-miterlimit="10"/>
<path d="M162.438 224.821L162.413 224.211L161.082 181.034" stroke="#407BFF" stroke-width="0.2" stroke-miterlimit="10"/>
<path d="M161.067 180.553L161.052 180.062L161.308 180.479" stroke="#407BFF" stroke-width="0.2" stroke-miterlimit="10"/>
<path d="M161.814 181.305L184.861 218.861" stroke="#407BFF" stroke-width="0.2" stroke-miterlimit="10"/>
<path d="M136.432 240.882C127.362 243.456 118.288 246.026 109.218 248.6C109.626 241.294 110.039 233.993 110.446 226.688L110.618 226.781L136.432 240.882Z" fill="#161819"/>
<path d="M136 240.646L136.432 240.882C136.275 240.926 136.118 240.97 135.961 241.014" stroke="#407BFF" stroke-width="0.2" stroke-miterlimit="10"/>
<path d="M134.988 241.289C126.719 243.638 118.445 245.977 110.176 248.325" stroke="#407BFF" stroke-width="0.2" stroke-miterlimit="10"/>
<path d="M109.69 248.463C109.533 248.507 109.375 248.551 109.218 248.595C109.228 248.433 109.238 248.266 109.248 248.104" stroke="#407BFF" stroke-width="0.2" stroke-miterlimit="10"/>
<path d="M109.302 247.112C109.665 240.631 110.029 234.156 110.392 227.675" stroke="#407BFF" stroke-width="0.2" stroke-miterlimit="10"/>
<path d="M110.417 227.174C110.427 227.012 110.437 226.845 110.446 226.682L110.618 226.776L110.879 226.918" stroke="#407BFF" stroke-width="0.2" stroke-miterlimit="10"/>
<path d="M111.744 227.395L135.567 240.41" stroke="#407BFF" stroke-width="0.2" stroke-miterlimit="10"/>
<path d="M161.715 226.496L159.578 227.719L136.432 240.882L110.619 226.781L110.643 226.231L110.648 226.226L125.348 192.236L135.504 202.171L147.055 192.177L161.052 226.687L161.715 226.496Z" fill="#161819"/>
<path d="M160.865 226.231L161.052 226.688L161.715 226.496L161.288 226.737" stroke="#407BFF" stroke-width="0.2" stroke-miterlimit="10"/>
<path d="M160.448 227.218L159.578 227.719L137.282 240.395" stroke="#407BFF" stroke-width="0.2" stroke-miterlimit="10"/>
<path d="M136.86 240.636L136.432 240.882L136 240.646" stroke="#407BFF" stroke-width="0.2" stroke-miterlimit="10"/>
<path d="M135.14 240.174L111.478 227.248" stroke="#407BFF" stroke-width="0.2" stroke-miterlimit="10"/>
<path d="M111.051 227.017L110.619 226.781L110.638 226.289" stroke="#407BFF" stroke-width="0.2" stroke-miterlimit="10"/>
<path d="M111.017 225.376L124.955 193.14" stroke="#407BFF" stroke-width="0.2" stroke-miterlimit="10"/>
<path d="M125.152 192.683L125.348 192.236L125.697 192.58" stroke="#407BFF" stroke-width="0.2" stroke-miterlimit="10"/>
<path d="M126.424 193.288L134.791 201.468" stroke="#407BFF" stroke-width="0.2" stroke-miterlimit="10"/>
<path d="M135.155 201.827L135.504 202.171L135.877 201.846" stroke="#407BFF" stroke-width="0.2" stroke-miterlimit="10"/>
<path d="M136.594 201.223L146.322 192.806" stroke="#407BFF" stroke-width="0.2" stroke-miterlimit="10"/>
<path d="M146.681 192.497L147.055 192.177L147.241 192.629" stroke="#407BFF" stroke-width="0.2" stroke-miterlimit="10"/>
<path d="M147.61 193.538L160.684 225.779" stroke="#407BFF" stroke-width="0.2" stroke-miterlimit="10"/>
<path d="M162.192 226.226L161.72 226.496" stroke="#407BFF" stroke-width="0.2" stroke-miterlimit="10"/>
<path d="M198.191 164.074L196.034 165.003" stroke="#407BFF" stroke-width="0.2" stroke-miterlimit="10"/>
<path d="M112.775 180.278L110.648 226.226L110.643 226.231L110.447 226.687L88.2489 220.202L87.9934 219.008L112.775 180.278Z" fill="#161819" stroke="#407BFF" stroke-width="0.2" stroke-miterlimit="10"/>
<path d="M88.2489 220.202C88.1457 219.843 88.0474 219.48 87.9393 219.092L87.9835 219.023L87.9934 219.008L88.2489 220.202Z" fill="white" stroke="#407BFF" stroke-width="0.2" stroke-miterlimit="10"/>
<path d="M76.4916 165.248L73.5978 164.074" stroke="#407BFF" stroke-width="0.2" stroke-miterlimit="10"/>
<path d="M147.055 192.177L135.504 202.171L125.348 192.236L136.56 166.305L147.055 192.177Z" fill="#161819"/>
<path d="M146.868 191.72L147.055 192.177L146.681 192.497" stroke="#407BFF" stroke-width="0.2" stroke-miterlimit="10"/>
<path d="M145.964 193.121L136.236 201.537" stroke="#407BFF" stroke-width="0.2" stroke-miterlimit="10"/>
<path d="M135.877 201.846L135.504 202.171L135.155 201.827" stroke="#407BFF" stroke-width="0.2" stroke-miterlimit="10"/>
<path d="M134.428 201.114L126.061 192.934" stroke="#407BFF" stroke-width="0.2" stroke-miterlimit="10"/>
<path d="M125.697 192.58L125.348 192.236L125.545 191.784" stroke="#407BFF" stroke-width="0.2" stroke-miterlimit="10"/>
<path d="M125.943 190.856L136.167 167.219" stroke="#407BFF" stroke-width="0.2" stroke-miterlimit="10"/>
<path d="M136.364 166.752L136.56 166.305L136.747 166.757" stroke="#407BFF" stroke-width="0.2" stroke-miterlimit="10"/>
<path d="M137.12 167.68L146.681 191.259" stroke="#407BFF" stroke-width="0.2" stroke-miterlimit="10"/>
<path d="M136.56 166.305L125.348 192.236L112.903 180.061L136.56 166.305Z" fill="#161819"/>
<path d="M136.138 166.55L136.56 166.305L136.364 166.752" stroke="#407BFF" stroke-width="0.2" stroke-miterlimit="10"/>
<path d="M135.966 167.68L125.741 191.322" stroke="#407BFF" stroke-width="0.2" stroke-miterlimit="10"/>
<path d="M125.545 191.784L125.348 192.236L124.999 191.892" stroke="#407BFF" stroke-width="0.2" stroke-miterlimit="10"/>
<path d="M124.307 191.214L113.601 180.74" stroke="#407BFF" stroke-width="0.2" stroke-miterlimit="10"/>
<path d="M113.252 180.405L112.903 180.061L113.326 179.811" stroke="#407BFF" stroke-width="0.2" stroke-miterlimit="10"/>
<path d="M114.171 179.32L135.715 166.796" stroke="#407BFF" stroke-width="0.2" stroke-miterlimit="10"/>
<path d="M83.7091 200.161C78.8893 198.594 73.2883 193.219 69.1759 178.587C62.0175 153.142 71.2689 145.394 75.0619 143.36C75.0472 145.36 75.0717 146.652 75.0717 146.652C75.1258 149.615 75.3272 156.144 76.526 165.189L76.4916 165.248L76.5408 165.268C76.5408 165.268 76.5457 165.302 76.5457 165.322C76.6096 165.803 76.6734 166.27 76.7422 166.722C76.7422 166.762 76.752 166.801 76.757 166.84C76.7913 167.101 76.8307 167.351 76.865 167.602C76.924 167.98 76.978 168.348 77.037 168.712C77.0616 168.889 77.091 169.066 77.1205 169.243C77.1451 169.42 77.1746 169.596 77.2041 169.768C77.263 170.117 77.322 170.461 77.3809 170.8C77.4939 171.488 77.6168 172.161 77.7494 172.844C77.8133 173.183 77.8772 173.527 77.9459 173.871V173.891C78.0246 174.279 78.1032 174.667 78.1818 175.065C78.3046 175.669 78.4373 176.288 78.5699 176.927C78.6534 177.305 78.732 177.688 78.8205 178.081C79.2528 180.076 79.7589 182.312 80.3632 184.994C80.4025 185.161 80.4418 185.333 80.4762 185.5C80.5499 185.825 80.6236 186.159 80.7022 186.498L80.8349 187.092L81.0756 188.183L82.8837 196.373L83.4634 199.016C83.5469 199.405 83.6305 199.783 83.7091 200.161Z" fill="#161819" stroke="#407BFF" stroke-width="0.2" stroke-miterlimit="10"/>
<path d="M82.8836 196.373L81.0756 188.183C81.2033 188.733 81.3262 189.303 81.4588 189.888C81.6111 190.566 81.7585 191.229 81.901 191.878C82.0042 192.344 82.1024 192.801 82.2007 193.248C82.4415 194.329 82.6675 195.371 82.8836 196.373Z" fill="white" stroke="#407BFF" stroke-width="0.2" stroke-miterlimit="10"/>
<path d="M195.754 164.6C195.729 164.786 195.71 164.973 195.685 165.155L161.052 180.062L136.56 166.305L161.73 142.795L162.413 143.704H181.25L195.754 164.6Z" fill="#161819"/>
<path d="M195.744 164.668C195.724 164.831 195.705 164.998 195.685 165.155L195.233 165.351" stroke="#407BFF" stroke-width="0.2" stroke-miterlimit="10"/>
<path d="M194.324 165.74L161.961 179.668" stroke="#407BFF" stroke-width="0.2" stroke-miterlimit="10"/>
<path d="M161.504 179.865L161.052 180.061L160.625 179.821" stroke="#407BFF" stroke-width="0.2" stroke-miterlimit="10"/>
<path d="M159.75 179.329L137.425 166.791" stroke="#407BFF" stroke-width="0.2" stroke-miterlimit="10"/>
<path d="M136.988 166.545L136.56 166.304L136.919 165.965" stroke="#407BFF" stroke-width="0.2" stroke-miterlimit="10"/>
<path d="M137.616 165.317L161.023 143.453" stroke="#407BFF" stroke-width="0.2" stroke-miterlimit="10"/>
<path d="M161.372 143.129L161.73 142.795L162.025 143.188" stroke="#407BFF" stroke-width="0.2" stroke-miterlimit="10"/>
<path d="M162.118 143.311L162.413 143.704H162.904" stroke="#407BFF" stroke-width="0.2" stroke-miterlimit="10"/>
<path d="M163.843 143.704H180.287" stroke="#407BFF" stroke-width="0.2" stroke-miterlimit="10"/>
<path d="M180.759 143.704H181.25L181.53 144.107" stroke="#407BFF" stroke-width="0.2" stroke-miterlimit="10"/>
<path d="M182.1 144.927L195.508 164.241" stroke="#407BFF" stroke-width="0.2" stroke-miterlimit="10"/>
<path d="M161.052 180.061L147.055 192.177L136.56 166.305L161.052 180.061Z" fill="#161819"/>
<path d="M160.625 179.821L161.052 180.061L160.679 180.381" stroke="#407BFF" stroke-width="0.2" stroke-miterlimit="10"/>
<path d="M159.903 181.054L147.816 191.519" stroke="#407BFF" stroke-width="0.2" stroke-miterlimit="10"/>
<path d="M147.428 191.853L147.055 192.177L146.868 191.72" stroke="#407BFF" stroke-width="0.2" stroke-miterlimit="10"/>
<path d="M146.494 190.797L136.933 167.219" stroke="#407BFF" stroke-width="0.2" stroke-miterlimit="10"/>
<path d="M136.747 166.757L136.56 166.305L136.987 166.545" stroke="#407BFF" stroke-width="0.2" stroke-miterlimit="10"/>
<path d="M137.862 167.037L160.187 179.575" stroke="#407BFF" stroke-width="0.2" stroke-miterlimit="10"/>
<path d="M204.288 173.183C201.261 188.566 195.474 195.41 190.556 198.427C192.207 189.858 193.951 178.976 195.685 165.155L196.034 165.003L195.754 164.6C196.329 159.991 196.903 155.058 197.473 149.777C197.744 147.276 197.935 144.849 198.048 142.495C202.156 144.927 208.425 152.145 204.288 173.183Z" fill="#161819" stroke="#407BFF" stroke-width="0.2" stroke-miterlimit="10"/>
<path d="M125.348 192.236L110.648 226.226L112.775 180.278V180.273L112.78 180.258L112.903 180.062L125.348 192.236Z" fill="#161819" stroke="#407BFF" stroke-width="0.2" stroke-miterlimit="10"/>
<path d="M112.903 180.062L112.78 180.258V180.273L112.775 180.278L87.9934 219.008C85.2174 207.836 83.375 199.586 82.1958 194.064C81.2378 189.583 81.1886 189.087 80.2306 184.729C78.9089 178.73 78.1081 175.581 77.2827 170.481C76.924 168.25 76.6833 166.428 76.5408 165.273C88.6222 170.186 100.709 175.104 112.79 180.017L112.903 180.062Z" fill="#161819"/>
<path d="M112.446 179.875C112.559 179.919 112.677 179.968 112.79 180.013L112.903 180.057L112.78 180.253V180.268L112.775 180.273L112.648 180.474" stroke="#407BFF" stroke-width="0.2" stroke-miterlimit="10"/>
<path d="M112.127 181.29L88.5191 218.188" stroke="#407BFF" stroke-width="0.2" stroke-miterlimit="10"/>
<path d="M88.2586 218.591L87.9933 219.003C87.954 218.841 87.9147 218.684 87.8754 218.527" stroke="#407BFF" stroke-width="0.2" stroke-miterlimit="10"/>
<path d="M87.6396 217.579C85.0602 207.133 83.3209 199.346 82.1958 194.064C81.2378 189.583 81.1886 189.087 80.2306 184.729C78.9089 178.73 78.1081 175.581 77.2827 170.481C77.0124 168.801 76.8061 167.351 76.6636 166.246" stroke="#407BFF" stroke-width="0.2" stroke-miterlimit="10"/>
<path d="M76.5997 165.759C76.5801 165.587 76.5555 165.425 76.5408 165.273C76.6931 165.337 76.8454 165.396 76.9977 165.46" stroke="#407BFF" stroke-width="0.2" stroke-miterlimit="10"/>
<path d="M77.9066 165.828C89.2708 170.451 100.63 175.07 111.994 179.693" stroke="#407BFF" stroke-width="0.2" stroke-miterlimit="10"/>
<path d="M76.5408 165.273L77.3858 171.105L77.828 173.611L78.1867 175.438L78.9482 178.976L79.7392 182.518L80.6482 186.66L81.1985 189.274L81.9796 193.042L82.5103 195.523L82.9819 197.695L83.4732 199.921L84.279 203.483L84.8784 206.077L85.3255 207.993L86.0674 211.113L86.7307 213.864L87.276 216.105L87.6887 217.775L88.1408 219.696" fill="#161819"/>
<path d="M76.5408 165.273L77.3858 171.105L77.828 173.611L78.1867 175.438L78.9482 178.976L79.7392 182.518L80.6482 186.66L81.1985 189.274L81.9796 193.042L82.5103 195.523L82.9819 197.695L83.4732 199.921L84.279 203.483L84.8784 206.077L85.3255 207.993L86.0674 211.113L86.7307 213.864L87.276 216.105L87.6887 217.775L88.1408 219.696" stroke="#407BFF" stroke-width="0.2" stroke-miterlimit="10"/>
<path d="M88.465 220.939L89.0743 222.806L89.8309 224.771L90.7103 226.687L92.5724 230.087L94.4935 233.129L95.8888 235.123L97.5102 237.27L98.9055 238.965L100.419 240.69L102.168 242.547L103.814 244.178L105.352 245.431L107.641 247.362L109.729 249.116L111.233 250.384L112.387 251.356L113.385 252.197L117.173 255.385L118.814 256.771L121.118 258.711L122.238 259.655H130.743H148.966L149.477 259.463L150.666 258.913L151.683 258.348L152.886 257.596L153.977 256.84L154.891 256.171L156.532 254.879L158.458 253.258L160.266 251.641L161.175 250.801L162.113 249.912L163.297 248.772L165.032 247.052L167.405 244.625L170.083 241.791L174.303 237.143L176.745 234.357L177.963 232.942L179.339 231.321L180.312 230.156L180.705 229.684L180.916 229.478L181.167 229.183L181.456 228.78L181.83 228.196L182.587 226.81L183.269 225.346L183.726 224.27L184.399 222.521L184.906 221.091L185.151 220.374" stroke="#407BFF" stroke-width="0.2" stroke-miterlimit="10"/>
<line x1="90.469" y1="143.374" x2="111.469" y2="142.374" stroke="#407BFF" stroke-width="0.2"/>
<rect x="80.4738" y="98.4738" width="6" height="6" fill="#407BFF"/>
<rect x="108.474" y="84.4738" width="6" height="6" fill="#407BFF"/>
<rect x="158.474" y="84.4738" width="6" height="6" fill="#407BFF"/>
<rect x="185.474" y="98.4738" width="6" height="6" fill="#407BFF"/>
<rect x="149.474" y="125.474" width="6" height="6" fill="#407BFF"/>
<rect x="118.474" y="125.474" width="6" height="6" fill="#407BFF"/>
<rect x="107.474" y="139.474" width="6" height="6" fill="#407BFF"/>
<rect x="133.474" y="163.474" width="6" height="6" fill="#407BFF"/>
<rect x="73.4738" y="162.474" width="6" height="6" fill="#407BFF"/>
<rect x="193.474" y="162.474" width="6" height="6" fill="#407BFF"/>
<rect x="158.474" y="177.474" width="6" height="6" fill="#407BFF"/>
<rect x="132.474" y="198.474" width="6" height="6" fill="#407BFF"/>
<rect x="108.474" y="176.474" width="6" height="6" fill="#407BFF"/>
<rect x="84.4738" y="217.474" width="6" height="6" fill="#407BFF"/>
<rect x="107.474" y="224.474" width="6" height="6" fill="#407BFF"/>
<rect x="132.474" y="237.474" width="6" height="6" fill="#407BFF"/>
<rect x="160.474" y="244.474" width="6" height="6" fill="#407BFF"/>
<rect x="107.474" y="244.474" width="6" height="6" fill="#407BFF"/>
<rect x="158.474" y="223.474" width="6" height="6" fill="#407BFF"/>
<rect x="181.474" y="216.474" width="6" height="6" fill="#407BFF"/>
<rect x="158.474" y="139.474" width="6" height="6" fill="#407BFF"/>
<rect x="179.474" y="139.474" width="6" height="6" fill="#407BFF"/>
<rect x="86.4738" y="139.474" width="6" height="6" fill="#407BFF"/>
</g>
<rect x="0.473755" y="191.474" width="270" height="129" fill="url(#paint0_linear_1_28902)" fill-opacity="0.2"/>
<rect x="0.473755" y="191.474" width="270" height="2" fill="#407BFF"/>
<defs>
<linearGradient id="paint0_linear_1_28902" x1="135.474" y1="191.474" x2="135.474" y2="320.474" gradientUnits="userSpaceOnUse">
<stop stop-color="#407BFF"/>
<stop offset="1" stop-color="#161719"/>
</linearGradient>
<clipPath id="clip0_1_28902">
<rect width="139.229" height="191.24" fill="white" transform="translate(66.4738 68.4738)"/>
</clipPath>
</defs>
</svg>
