<svg width="35" height="30" viewBox="0 0 35 30" fill="none" xmlns="http://www.w3.org/2000/svg">
<path d="M7.18839 0.111206C7.24611 0.532044 7.57703 0.863058 7.99787 0.920687C7.57703 0.978406 7.24611 1.30933 7.18839 1.73017C7.13067 1.30933 6.79974 0.978317 6.37891 0.920687C6.79974 0.862969 7.13067 0.532044 7.18839 0.111206Z" stroke="#263238" stroke-width="0.222336" stroke-miterlimit="10" stroke-linecap="round" stroke-linejoin="round"/>
<path d="M1.73003 0.539917C1.7608 0.764387 1.93724 0.940832 2.16171 0.971604C1.93724 1.00237 1.7608 1.17891 1.73003 1.40329C1.69926 1.17882 1.52272 1.00237 1.29834 0.971604C1.52281 0.940832 1.69926 0.764387 1.73003 0.539917Z" fill="#9ABAE3" stroke="#9ABAE3" stroke-width="0.222336" stroke-miterlimit="10" stroke-linecap="round" stroke-linejoin="round"/>
<path d="M9.78081 2.91016C9.81158 3.13463 9.98811 3.31107 10.2125 3.34184C9.98803 3.37262 9.81158 3.54915 9.78081 3.77353C9.75004 3.54906 9.5735 3.37262 9.34912 3.34184C9.57359 3.31107 9.75004 3.13454 9.78081 2.91016Z" fill="#9ABAE3" stroke="#9ABAE3" stroke-width="0.222336" stroke-miterlimit="10" stroke-linecap="round" stroke-linejoin="round"/>
<path d="M0.920809 4.06409C0.978528 4.48492 1.30945 4.81594 1.73029 4.87357C1.30945 4.93129 0.978439 5.26221 0.920809 5.68305C0.863091 5.26221 0.532166 4.93129 0.111328 4.87357C0.532166 4.81594 0.863091 4.48492 0.920809 4.06409Z" stroke="#263238" stroke-width="0.222336" stroke-miterlimit="10" stroke-linecap="round" stroke-linejoin="round"/>
<path d="M2.86367 27.4725H33.6275C34.2533 27.4725 34.7607 26.9651 34.7607 26.3393V8.48083C34.7607 7.85499 34.2533 7.34753 33.6275 7.34753H2.86367C2.23784 7.34753 1.73047 7.85491 1.73047 8.48074V26.3392C1.73038 26.9651 2.23775 27.4725 2.86367 27.4725Z" fill="#9ABAE3"/>
<path d="M31.3105 27.4724H33.6855C34.2794 27.4724 34.7611 26.9916 34.7611 26.3976V8.42252C34.7611 7.82861 34.2794 7.34766 33.6855 7.34766H31.3105C31.9045 7.34766 32.3854 7.82853 32.3854 8.42252V26.3976C32.3853 26.9916 31.9045 27.4724 31.3105 27.4724Z" fill="white"/>
<path d="M2.86367 27.4725H33.6275C34.2533 27.4725 34.7607 26.9651 34.7607 26.3393V8.48083C34.7607 7.85499 34.2533 7.34753 33.6275 7.34753H2.86367C2.23784 7.34753 1.73047 7.85491 1.73047 8.48074V26.3392C1.73038 26.9651 2.23775 27.4725 2.86367 27.4725Z" stroke="#263238" stroke-width="0.222336" stroke-miterlimit="10" stroke-linecap="round" stroke-linejoin="round"/>
<path d="M12.0787 4.35498H19.9238L22.1173 7.34753H9.88525L12.0787 4.35498Z" fill="#9ABAE3"/>
<path d="M17.8096 4.35535L20.003 7.34781H22.1173L19.9238 4.35535H17.8096Z" fill="white"/>
<path d="M12.0787 4.35498H19.9238L22.1173 7.34753H9.88525L12.0787 4.35498Z" stroke="#263238" stroke-width="0.222336" stroke-miterlimit="10" stroke-linecap="round" stroke-linejoin="round"/>
<path d="M26.4462 11.0873H30.4487V9.25532H26.4462V11.0873Z" fill="#263238" stroke="#263238" stroke-width="0.222336" stroke-miterlimit="10" stroke-linecap="round" stroke-linejoin="round"/>
<path d="M6.73603 11.0638C7.22853 10.9481 7.53399 10.455 7.41829 9.96251C7.30259 9.47001 6.80954 9.16455 6.31704 9.28025C5.82454 9.39595 5.51909 9.88899 5.63479 10.3815C5.75049 10.874 6.24353 11.1795 6.73603 11.0638Z" fill="white" stroke="#263238" stroke-width="0.222336" stroke-miterlimit="10" stroke-linecap="round" stroke-linejoin="round"/>
<path d="M26.787 6.22498H30.3324C30.5516 6.22498 30.7293 6.40267 30.7293 6.62189V7.34751H26.3901V6.62189C26.3901 6.40267 26.5678 6.22498 26.787 6.22498Z" fill="#9ABAE3"/>
<path d="M29.2437 6.22461C29.452 6.22461 29.6207 6.39332 29.6207 6.60169V7.3475H30.7293V6.60169C30.7293 6.39332 30.5606 6.22461 30.353 6.22461H29.2437Z" fill="white"/>
<path d="M26.787 6.22498H30.3324C30.5516 6.22498 30.7293 6.40267 30.7293 6.62189V7.34751H26.3901V6.62189C26.3901 6.40267 26.5678 6.22498 26.787 6.22498Z" stroke="#263238" stroke-width="0.222336" stroke-miterlimit="10" stroke-linecap="round" stroke-linejoin="round"/>
<path d="M27.8481 5.46899H29.2722C29.4914 5.46899 29.6691 5.64669 29.6691 5.86591V6.23348H27.4512V5.86591C27.4512 5.64678 27.6289 5.46899 27.8481 5.46899Z" fill="#407BFF" stroke="#263238" stroke-width="0.222336" stroke-miterlimit="10" stroke-linecap="round" stroke-linejoin="round"/>
<path d="M32.3943 12.7341H1.73047V25.6396H32.3943" fill="#407BFF"/>
<path d="M32.3943 12.7341H1.73047V25.6396H32.3943" stroke="#263238" stroke-width="0.222336" stroke-miterlimit="10" stroke-linecap="round" stroke-linejoin="round"/>
<path d="M34.7609 12.7341H32.0718" stroke="#263238" stroke-width="0.222336" stroke-miterlimit="10" stroke-linecap="round" stroke-linejoin="round"/>
<path d="M34.7609 25.6396H32.0718" stroke="#263238" stroke-width="0.222336" stroke-miterlimit="10" stroke-linecap="round" stroke-linejoin="round"/>
<path d="M15.8702 28.95C21.2622 28.95 25.6334 24.5789 25.6334 19.1868C25.6334 13.7947 21.2622 9.42358 15.8702 9.42358C10.4781 9.42358 6.10693 13.7947 6.10693 19.1868C6.10693 24.5789 10.4781 28.95 15.8702 28.95Z" fill="#9ABAE3" stroke="#263238" stroke-width="0.222336" stroke-miterlimit="10" stroke-linecap="round" stroke-linejoin="round"/>
<path d="M15.8701 27.2864C20.3434 27.2864 23.9697 23.6601 23.9697 19.1868C23.9697 14.7135 20.3434 11.0872 15.8701 11.0872C11.3968 11.0872 7.77051 14.7135 7.77051 19.1868C7.77051 23.6601 11.3968 27.2864 15.8701 27.2864Z" stroke="#263238" stroke-width="0.222336" stroke-miterlimit="10" stroke-linecap="round" stroke-linejoin="round"/>
<path d="M20.9617 24.2785C23.7737 21.4664 23.7737 16.9071 20.9617 14.0951C18.1496 11.283 13.5903 11.283 10.7782 14.0951C7.96616 16.9071 7.96616 21.4664 10.7782 24.2785C13.5903 27.0906 18.1496 27.0906 20.9617 24.2785Z" fill="#263238" stroke="#263238" stroke-width="0.222336" stroke-miterlimit="10" stroke-linecap="round" stroke-linejoin="round"/>
<path d="M18.1022 13.4753C20.7094 13.711 22.6452 17.9474 21.4165 19.0728C20.6318 19.7915 20.1061 18.0456 18.0581 16.8252C17.5311 16.5112 16.5092 16.0498 16.4029 15.0016C16.3046 14.0337 17.0359 13.3789 18.1022 13.4753Z" fill="white"/>
<path d="M15.571 17.7631C17.4032 17.7631 17.4062 20.6104 15.571 20.6104C13.7389 20.6104 13.7359 17.7631 15.571 17.7631Z" fill="white"/>
<path d="M4.10852 7.34778L8.3916 7.34778V6.89475L4.10852 6.89475V7.34778Z" fill="#9ABAE3" stroke="#263238" stroke-width="0.222336" stroke-miterlimit="10" stroke-linecap="round" stroke-linejoin="round"/>
<path d="M3.90081 6.89472H8.59922C8.83054 6.89472 9.0181 6.70716 9.0181 6.47584V5.77655C9.0181 5.54523 8.83054 5.35767 8.59922 5.35767H3.90081C3.6695 5.35767 3.48193 5.54523 3.48193 5.77655V6.47584C3.48193 6.70716 3.6695 6.89472 3.90081 6.89472Z" fill="#9ABAE3"/>
<path d="M7.57373 6.89441H8.62067C8.84007 6.89441 9.01803 6.71725 9.01803 6.49705V5.75551C9.01803 5.53531 8.83998 5.35815 8.62067 5.35815H7.57373C7.79304 5.35815 7.97109 5.53531 7.97109 5.75551V6.49705C7.97109 6.71725 7.79304 6.89441 7.57373 6.89441Z" fill="white"/>
<path d="M3.90081 6.89472H8.59922C8.83054 6.89472 9.0181 6.70716 9.0181 6.47584V5.77655C9.0181 5.54523 8.83054 5.35767 8.59922 5.35767H3.90081C3.6695 5.35767 3.48193 5.54523 3.48193 5.77655V6.47584C3.48193 6.70716 3.6695 6.89472 3.90081 6.89472Z" stroke="#263238" stroke-width="0.222336" stroke-miterlimit="10" stroke-linecap="round" stroke-linejoin="round"/>
</svg>
