<svg width="94" height="116" viewBox="0 0 94 116" fill="none" xmlns="http://www.w3.org/2000/svg">
<g filter="url(#filter0_d_1_30140)">
<g clip-path="url(#clip0_1_30140)">
<rect x="16" y="13" width="40" height="40" rx="8" fill="url(#paint0_linear_1_30140)"/>
<g filter="url(#filter1_dd_1_30140)">
<g clip-path="url(#clip1_1_30140)">
<rect x="22" y="19" width="64.4583" height="48.75" rx="2.85171" fill="#F7F8F8"/>
<g clip-path="url(#clip2_1_30140)">
<mask id="path-4-outside-1_1_30140" maskUnits="userSpaceOnUse" x="22" y="19.0001" width="65" height="5" fill="black">
<rect fill="white" x="22" y="19.0001" width="65" height="5"/>
<path d="M22 19.8484C22 19.3799 22.3798 19.0001 22.8483 19.0001H85.61C86.0785 19.0001 86.4583 19.3799 86.4583 19.8484V23.6043H22V19.8484Z"/>
</mask>
<path d="M22 19.8484C22 19.3799 22.3798 19.0001 22.8483 19.0001H85.61C86.0785 19.0001 86.4583 19.3799 86.4583 19.8484V23.6043H22V19.8484Z" fill="#E9ECF1"/>
<path d="M22 19.0001H86.4583H22M86.4583 23.7397H22V23.4688H86.4583V23.7397ZM86.4583 23.4688M22 23.6043V19.0001V23.6043M22 23.6043M86.4583 19.0001V23.6043V19.0001" fill="#D6D9E1" mask="url(#path-4-outside-1_1_30140)"/>
<g clip-path="url(#clip3_1_30140)">
<circle cx="28.2573" cy="21.5504" r="0.609733" fill="#27CA40" stroke="#3EAF3F" stroke-width="0.0530203"/>
<circle cx="26.1362" cy="21.5504" r="0.609733" fill="#FFC130" stroke="#E1A325" stroke-width="0.0530203"/>
<circle cx="24.0152" cy="21.5504" r="0.609733" fill="#FF6058" stroke="#E14942" stroke-width="0.0530203"/>
</g>
</g>
<path fill-rule="evenodd" clip-rule="evenodd" d="M29.8457 23.7253C29.9925 23.6255 30.3351 23.5756 30.4819 22.877C30.4819 22.877 30.4819 23.7253 30.4819 23.7253H29.8457Z" fill="white"/>
<g clip-path="url(#clip4_1_30140)">
<path d="M30.4824 20.9675C30.4824 20.499 30.8622 20.1192 31.3307 20.1192H41.6167C42.0852 20.1192 42.465 20.499 42.465 20.9675V23.7246H30.4824V20.9675Z" fill="white"/>
<rect x="31.207" y="21.1661" width="1.08333" height="1.08333" rx="0.424162" fill="#E7EAED"/>
<rect x="32.834" y="21.1661" width="4.875" height="1.08333" rx="0.424162" fill="#E7EAED"/>
<rect x="40.6738" y="21.1661" width="1.08333" height="1.08333" rx="0.318122" fill="#DEE1E6"/>
</g>
<path fill-rule="evenodd" clip-rule="evenodd" d="M43.1016 23.7253C42.9547 23.6255 42.6121 23.5756 42.4653 22.877C42.4653 22.877 42.4653 23.7253 42.4653 23.7253H43.1016Z" fill="white"/>
<mask id="path-15-inside-2_1_30140" fill="white">
<path d="M22 23.6045H86.4583V27.9378H22V23.6045Z"/>
</mask>
<path d="M22 23.6045H86.4583V27.9378H22V23.6045Z" fill="white"/>
<path d="M86.4583 27.9378V27.8295H22V27.9378V28.0462H86.4583V27.9378Z" fill="#EEEEF0" mask="url(#path-15-inside-2_1_30140)"/>
<rect x="24.6684" y="24.9184" width="1.70625" height="1.70625" rx="0.464787" fill="#3F77F3"/>
<rect x="24.6684" y="24.9184" width="1.70625" height="1.70625" rx="0.464787" stroke="#0B3CA8" stroke-width="0.08125"/>
<rect x="27.957" y="25.2295" width="6.77083" height="1.08333" rx="0.541667" fill="#EBEEF1"/>
<rect x="35.8125" y="25.2296" width="4.0625" height="1.08333" rx="0.541667" fill="#EBEEF1"/>
<rect x="40.959" y="25.2296" width="2.97917" height="1.08333" rx="0.541667" fill="#EBEEF1"/>
<rect width="15.1667" height="39.8125" transform="translate(22 27.9375)" fill="white"/>
<rect x="24.6684" y="34.6684" width="5.76875" height="1.16458" rx="0.464787" fill="#3F77F3"/>
<rect x="24.6684" y="34.6684" width="5.76875" height="1.16458" rx="0.464787" stroke="#0B3CA8" stroke-width="0.08125"/>
<rect x="24.709" y="37.1465" width="9.75" height="1.35417" rx="0.424162" fill="#EBEEF1"/>
<rect x="24.709" y="39.3133" width="9.75" height="1.35417" rx="0.424162" fill="#EBEEF1"/>
<rect x="24.709" y="41.4799" width="9.75" height="1.35417" rx="0.424162" fill="#EBEEF1"/>
<rect x="24.709" y="43.6465" width="9.75" height="1.35417" rx="0.424162" fill="#EBEEF1"/>
<rect x="24.3969" y="30.6049" width="2.24792" height="2.24792" rx="1.12396" fill="#DEE1E6"/>
<rect x="24.3969" y="30.6049" width="2.24792" height="2.24792" rx="1.12396" stroke="#C7CACF" stroke-width="0.08125"/>
<rect x="39.6035" y="30.375" width="6.22917" height="1.625" rx="0.541667" fill="#DEE1E6"/>
<g filter="url(#filter2_dd_1_30140)">
<g clip-path="url(#clip5_1_30140)">
<rect x="39.6035" y="33.3545" width="44.9583" height="8.39583" rx="1.625" fill="white"/>
<rect x="41.7289" y="35.4809" width="0.89375" height="0.89375" rx="0.446875" fill="#3F77F3"/>
<rect x="41.7289" y="35.4809" width="0.89375" height="0.89375" rx="0.446875" stroke="#0B3CA8" stroke-width="0.08125"/>
<rect x="41.7695" y="37.4174" width="7.58333" height="0.8125" rx="0.40625" fill="#EBEEF1"/>
<rect x="41.7695" y="38.7715" width="7.58333" height="0.8125" rx="0.40625" fill="#EBEEF1"/>
<rect width="0.135417" height="8.39583" transform="translate(54.5 33.3545)" fill="#EEEEF0"/>
</g>
<rect x="39.6577" y="33.4087" width="44.85" height="8.2875" rx="1.57083" stroke="#EEEEF0" stroke-width="0.108333"/>
</g>
<g filter="url(#filter3_dd_1_30140)">
<g clip-path="url(#clip6_1_30140)">
<mask id="path-33-inside-3_1_30140" fill="white">
<path d="M39.6035 45.8124C39.6035 44.915 40.3311 44.1874 41.2285 44.1874H82.9369C83.8343 44.1874 84.5619 44.915 84.5619 45.8124V67.7499H39.6035V45.8124Z"/>
</mask>
<path d="M39.6035 45.8124C39.6035 44.915 40.3311 44.1874 41.2285 44.1874H82.9369C83.8343 44.1874 84.5619 44.915 84.5619 45.8124V67.7499H39.6035V45.8124Z" fill="white"/>
<rect x="41.7695" y="46.3544" width="6.22917" height="1.625" rx="0.541667" fill="#EBEEF1"/>
<rect x="41.8372" y="48.8596" width="19.6354" height="2.57292" rx="0.473958" stroke="#EBEDF3" stroke-width="0.135417"/>
</g>
<path d="M39.4952 45.8124C39.4952 44.8551 40.2712 44.0791 41.2285 44.0791H82.9369C83.8941 44.0791 84.6702 44.8551 84.6702 45.8124H84.4535C84.4535 44.9748 83.7745 44.2958 82.9369 44.2958H41.2285C40.3909 44.2958 39.7118 44.9748 39.7118 45.8124H39.4952ZM39.7118 45.8124M84.5619 67.7499H39.6035H84.5619M39.4952 67.7499V45.8124C39.4952 44.8551 40.2712 44.0791 41.2285 44.0791V44.2958C40.3909 44.2958 39.7118 44.9748 39.7118 45.8124V67.7499H39.4952ZM82.9369 44.0791C83.8941 44.0791 84.6702 44.8551 84.6702 45.8124V67.7499H84.4535V45.8124C84.4535 44.9748 83.7745 44.2958 82.9369 44.2958V44.0791Z" fill="#EEEEF0" mask="url(#path-33-inside-3_1_30140)"/>
</g>
</g>
<rect x="22" y="19" width="64.4583" height="48.75" rx="2.85171" stroke="#DCDCDE" stroke-width="0.133179"/>
</g>
</g>
<rect x="16.75" y="13.75" width="38.5" height="38.5" rx="7.25" stroke="url(#paint1_linear_1_30140)" stroke-width="1.5"/>
</g>
<defs>
<filter id="filter0_d_1_30140" x="-22" y="0" width="116" height="116" filterUnits="userSpaceOnUse" color-interpolation-filters="sRGB">
<feFlood flood-opacity="0" result="BackgroundImageFix"/>
<feColorMatrix in="SourceAlpha" type="matrix" values="0 0 0 0 0 0 0 0 0 0 0 0 0 0 0 0 0 0 127 0" result="hardAlpha"/>
<feMorphology radius="12" operator="erode" in="SourceAlpha" result="effect1_dropShadow_1_30140"/>
<feOffset dy="25"/>
<feGaussianBlur stdDeviation="25"/>
<feColorMatrix type="matrix" values="0 0 0 0 0.0648785 0 0 0 0 0.291395 0 0 0 0 0.776788 0 0 0 0.25 0"/>
<feBlend mode="normal" in2="BackgroundImageFix" result="effect1_dropShadow_1_30140"/>
<feBlend mode="normal" in="SourceGraphic" in2="effect1_dropShadow_1_30140" result="shape"/>
</filter>
<filter id="filter1_dd_1_30140" x="18.471" y="16.0035" width="71.5166" height="55.8085" filterUnits="userSpaceOnUse" color-interpolation-filters="sRGB">
<feFlood flood-opacity="0" result="BackgroundImageFix"/>
<feColorMatrix in="SourceAlpha" type="matrix" values="0 0 0 0 0 0 0 0 0 0 0 0 0 0 0 0 0 0 127 0" result="hardAlpha"/>
<feMorphology radius="0.266357" operator="erode" in="SourceAlpha" result="effect1_dropShadow_1_30140"/>
<feOffset dy="0.266357"/>
<feGaussianBlur stdDeviation="0.266357"/>
<feComposite in2="hardAlpha" operator="out"/>
<feColorMatrix type="matrix" values="0 0 0 0 0.0392157 0 0 0 0 0.0352941 0 0 0 0 0.0431373 0 0 0 0.04 0"/>
<feBlend mode="normal" in2="BackgroundImageFix" result="effect1_dropShadow_1_30140"/>
<feColorMatrix in="SourceAlpha" type="matrix" values="0 0 0 0 0 0 0 0 0 0 0 0 0 0 0 0 0 0 127 0" result="hardAlpha"/>
<feMorphology radius="0.266357" operator="erode" in="SourceAlpha" result="effect2_dropShadow_1_30140"/>
<feOffset dy="0.532714"/>
<feGaussianBlur stdDeviation="1.8645"/>
<feComposite in2="hardAlpha" operator="out"/>
<feColorMatrix type="matrix" values="0 0 0 0 0.0392157 0 0 0 0 0.0352941 0 0 0 0 0.0431373 0 0 0 0.09 0"/>
<feBlend mode="normal" in2="effect1_dropShadow_1_30140" result="effect2_dropShadow_1_30140"/>
<feBlend mode="normal" in="SourceGraphic" in2="effect2_dropShadow_1_30140" result="shape"/>
</filter>
<filter id="filter2_dd_1_30140" x="39.0618" y="33.0837" width="46.0418" height="9.47918" filterUnits="userSpaceOnUse" color-interpolation-filters="sRGB">
<feFlood flood-opacity="0" result="BackgroundImageFix"/>
<feColorMatrix in="SourceAlpha" type="matrix" values="0 0 0 0 0 0 0 0 0 0 0 0 0 0 0 0 0 0 127 0" result="hardAlpha"/>
<feOffset dy="0.270833"/>
<feGaussianBlur stdDeviation="0.270833"/>
<feComposite in2="hardAlpha" operator="out"/>
<feColorMatrix type="matrix" values="0 0 0 0 0.0392157 0 0 0 0 0.0352941 0 0 0 0 0.0431373 0 0 0 0.02 0"/>
<feBlend mode="normal" in2="BackgroundImageFix" result="effect1_dropShadow_1_30140"/>
<feColorMatrix in="SourceAlpha" type="matrix" values="0 0 0 0 0 0 0 0 0 0 0 0 0 0 0 0 0 0 127 0" result="hardAlpha"/>
<feMorphology radius="1.35417" operator="erode" in="SourceAlpha" result="effect2_dropShadow_1_30140"/>
<feOffset dy="0.270833"/>
<feGaussianBlur stdDeviation="0.270833"/>
<feComposite in2="hardAlpha" operator="out"/>
<feColorMatrix type="matrix" values="0 0 0 0 0.0392157 0 0 0 0 0.0352941 0 0 0 0 0.0431373 0 0 0 0.03 0"/>
<feBlend mode="normal" in2="effect1_dropShadow_1_30140" result="effect2_dropShadow_1_30140"/>
<feBlend mode="normal" in="SourceGraphic" in2="effect2_dropShadow_1_30140" result="shape"/>
</filter>
<filter id="filter3_dd_1_30140" x="39.0618" y="43.9166" width="46.0418" height="24.6458" filterUnits="userSpaceOnUse" color-interpolation-filters="sRGB">
<feFlood flood-opacity="0" result="BackgroundImageFix"/>
<feColorMatrix in="SourceAlpha" type="matrix" values="0 0 0 0 0 0 0 0 0 0 0 0 0 0 0 0 0 0 127 0" result="hardAlpha"/>
<feOffset dy="0.270833"/>
<feGaussianBlur stdDeviation="0.270833"/>
<feComposite in2="hardAlpha" operator="out"/>
<feColorMatrix type="matrix" values="0 0 0 0 0.0392157 0 0 0 0 0.0352941 0 0 0 0 0.0431373 0 0 0 0.02 0"/>
<feBlend mode="normal" in2="BackgroundImageFix" result="effect1_dropShadow_1_30140"/>
<feColorMatrix in="SourceAlpha" type="matrix" values="0 0 0 0 0 0 0 0 0 0 0 0 0 0 0 0 0 0 127 0" result="hardAlpha"/>
<feMorphology radius="1.35417" operator="erode" in="SourceAlpha" result="effect2_dropShadow_1_30140"/>
<feOffset dy="0.270833"/>
<feGaussianBlur stdDeviation="0.270833"/>
<feComposite in2="hardAlpha" operator="out"/>
<feColorMatrix type="matrix" values="0 0 0 0 0.0392157 0 0 0 0 0.0352941 0 0 0 0 0.0431373 0 0 0 0.03 0"/>
<feBlend mode="normal" in2="effect1_dropShadow_1_30140" result="effect2_dropShadow_1_30140"/>
<feBlend mode="normal" in="SourceGraphic" in2="effect2_dropShadow_1_30140" result="shape"/>
</filter>
<linearGradient id="paint0_linear_1_30140" x1="36" y1="13" x2="36" y2="53" gradientUnits="userSpaceOnUse">
<stop stop-color="#253F6A"/>
<stop offset="1" stop-color="#1A3B73" stop-opacity="0"/>
</linearGradient>
<linearGradient id="paint1_linear_1_30140" x1="36" y1="13" x2="36" y2="53" gradientUnits="userSpaceOnUse">
<stop stop-color="#667085"/>
<stop offset="1" stop-color="#4E5C77"/>
</linearGradient>
<clipPath id="clip0_1_30140">
<rect x="16" y="13" width="40" height="40" rx="8" fill="white"/>
</clipPath>
<clipPath id="clip1_1_30140">
<rect x="22" y="19" width="64.4583" height="48.75" rx="2.85171" fill="white"/>
</clipPath>
<clipPath id="clip2_1_30140">
<rect width="64.4583" height="4.60417" fill="white" transform="translate(22 19.0001)"/>
</clipPath>
<clipPath id="clip3_1_30140">
<rect width="5.51411" height="1.27249" fill="white" transform="translate(23.3789 20.9141)"/>
</clipPath>
<clipPath id="clip4_1_30140">
<path d="M30.4824 20.9675C30.4824 20.499 30.8622 20.1192 31.3307 20.1192H41.6167C42.0852 20.1192 42.465 20.499 42.465 20.9675V23.7246H30.4824V20.9675Z" fill="white"/>
</clipPath>
<clipPath id="clip5_1_30140">
<rect x="39.6035" y="33.3545" width="44.9583" height="8.39583" rx="1.625" fill="white"/>
</clipPath>
<clipPath id="clip6_1_30140">
<path d="M39.6035 45.8124C39.6035 44.915 40.3311 44.1874 41.2285 44.1874H82.9369C83.8343 44.1874 84.5619 44.915 84.5619 45.8124V67.7499H39.6035V45.8124Z" fill="white"/>
</clipPath>
</defs>
</svg>
