<svg width="30" height="36" viewBox="0 0 30 36" fill="none" xmlns="http://www.w3.org/2000/svg">
<path d="M25.5115 0.147709L1.38927 2.6632e-05C0.596504 -0.00483785 -0.0375321 0.657346 0.0017301 1.44916L1.61721 34.8111C1.64188 35.3206 2.06218 35.721 2.57229 35.721H27.59C28.1023 35.721 28.5243 35.319 28.5492 34.8074L29.9952 5.10097L25.5115 0.147709Z" fill="#91B3FA"/>
<path d="M26.5144 4.95415C25.7287 4.9265 25.1246 4.24925 25.1865 3.46546L25.4451 0.192871L29.9999 5.08086L26.5144 4.95415Z" fill="#7D97F4"/>
<path d="M5.46546 6.31423C8.80846 6.40807 21.6421 6.75478 24.8828 6.84226C25.2916 6.85329 25.6164 7.11563 25.6007 7.42132C25.5858 7.71231 25.266 7.93538 24.8768 7.9262L5.46842 7.46894C5.09457 7.46013 4.78267 7.23936 4.74888 6.95965L4.74033 6.88889C4.70167 6.56904 5.03798 6.30224 5.46546 6.31423Z" fill="url(#paint0_linear_1_27928)"/>
<path d="M5.08112 9.70298C5.13416 9.77705 5.23537 9.82521 5.34612 9.82909L18.6651 10.2964C18.8324 10.3023 18.9713 10.207 18.9777 10.0818L19.0115 9.42526C19.0182 9.2948 18.8788 9.183 18.7043 9.17892L5.74894 8.87627C5.17191 8.86279 4.80485 9.31719 5.08112 9.70298Z" fill="url(#paint1_linear_1_27928)"/>
<path d="M5.13783 12.2525C8.48084 12.3464 21.3144 12.6931 24.5552 12.7806C24.9639 12.7916 25.2888 13.0539 25.2731 13.3596C25.2582 13.6506 24.9383 13.8737 24.5492 13.8645L5.14079 13.4072C4.76694 13.3984 4.45504 13.1777 4.42124 12.8979L4.41269 12.8272C4.37406 12.5074 4.71036 12.2405 5.13783 12.2525Z" fill="url(#paint2_linear_1_27928)"/>
<path d="M4.75398 15.6414C4.80702 15.7154 4.90823 15.7636 5.01898 15.7675L18.338 16.2349C18.5053 16.2407 18.6441 16.1454 18.6506 16.0203L18.6843 15.3637C18.691 15.2332 18.5516 15.1214 18.3772 15.1173L5.4218 14.8147C4.84475 14.8012 4.4777 15.2556 4.75398 15.6414Z" fill="url(#paint3_linear_1_27928)"/>
<path d="M6.35002 26.4423C6.46378 24.9905 6.95591 23.5671 7.72881 22.3188C8.11712 21.6951 8.57361 21.1112 9.09647 20.5905C9.2305 20.4639 9.36129 20.3335 9.49856 20.2101C9.6398 20.0913 9.77769 19.9681 9.92224 19.853C10.07 19.7421 10.2162 19.6286 10.3681 19.5232L10.5998 19.3704L10.7157 19.2941L10.7737 19.2559C10.7947 19.2428 10.823 19.226 10.8481 19.2126C11.2553 18.9879 11.8396 18.9774 12.2343 19.3739C12.3305 19.4691 12.3974 19.5836 12.4473 19.6961C12.4699 19.7527 12.492 19.8098 12.5052 19.8656C12.5222 19.9224 12.5313 19.9772 12.5408 20.0323C12.5756 20.2522 12.5656 20.4565 12.5452 20.654C12.5349 20.7525 12.5188 20.8493 12.5015 20.9436L12.4486 21.2098C12.4147 21.3876 12.375 21.5642 12.3362 21.7409C12.2581 22.0943 12.1697 22.4453 12.0768 22.7951C11.699 24.1924 11.1987 25.5565 10.5799 26.8645L10.3429 27.3526C10.26 27.5133 10.1791 27.6751 10.0945 27.8349L9.96608 28.0738L9.90187 28.1933L9.83115 28.3179C9.73328 28.4838 9.62398 28.6449 9.49667 28.7981C9.36882 28.9506 9.22421 29.0973 9.04392 29.2206C8.86534 29.3425 8.64011 29.4415 8.39026 29.4537C8.32834 29.46 8.26653 29.4534 8.20481 29.4468C8.14214 29.4435 8.08482 29.4232 8.02539 29.4092C7.90727 29.3773 7.7954 29.32 7.69711 29.2505C7.49906 29.1101 7.35684 28.9157 7.2687 28.7063C7.18369 28.4993 7.14638 28.2834 7.14487 28.0735C7.14232 27.8635 7.1738 27.6636 7.21688 27.4751C7.26091 27.2859 7.31552 27.109 7.37586 26.9359L7.46476 26.6746L7.5649 26.4175C7.83341 25.7324 8.18872 25.0843 8.60379 24.4799C9.01735 23.8739 9.50575 23.3212 10.0434 22.8241L10.1439 22.7304L10.2486 22.6415L10.4584 22.4642C10.5298 22.4069 10.6031 22.352 10.6754 22.2959C10.7482 22.2404 10.8193 22.1828 10.8955 22.1318C11.0455 22.0269 11.194 21.92 11.3507 21.8251L11.4667 21.7519L11.5247 21.7153C11.535 21.7089 11.5425 21.7036 11.5552 21.6965L11.5934 21.6751C11.6966 21.6208 11.8095 21.5845 11.9262 21.5722C12.1583 21.5448 12.409 21.6139 12.5896 21.7786C12.6825 21.8606 12.7571 21.9781 12.791 22.099C12.8267 22.2205 12.8255 22.3371 12.8151 22.4422C12.8039 22.5478 12.7813 22.6444 12.7572 22.7355L12.6845 22.9957L12.5397 23.5115C12.3481 24.1995 12.1488 24.8855 11.9536 25.5725L11.9532 25.5741L11.6516 25.5202C11.674 25.289 11.7363 25.0555 11.8639 24.8458C11.9288 24.7418 12.0081 24.6454 12.1079 24.5652C12.2077 24.4836 12.3235 24.4267 12.4455 24.3905C12.5681 24.3561 12.6992 24.3437 12.8305 24.3654C12.8958 24.3761 12.9612 24.3944 13.0227 24.4233C13.0541 24.4364 13.0833 24.4544 13.1126 24.4717L13.1734 24.51C13.3211 24.593 13.5053 24.6087 13.6567 24.5419C13.695 24.5266 13.7301 24.5048 13.7634 24.4807C13.7792 24.4675 13.7961 24.4557 13.8103 24.4403L13.8332 24.4181L13.8606 24.3888L14.0804 24.1544L14.5199 23.6855L14.9595 23.2167L15.1792 22.9823C15.2332 22.9254 15.3107 22.8754 15.3969 22.8581C15.483 22.8398 15.5723 22.8521 15.6484 22.8866C15.7247 22.9211 15.7906 22.9775 15.8355 23.0513C15.8807 23.1247 15.9003 23.217 15.89 23.3014C15.8889 23.3232 15.8842 23.3432 15.8786 23.3629C15.8736 23.3817 15.8666 23.4062 15.8629 23.4152L15.8366 23.4892L15.7867 23.6381C15.7222 23.8373 15.6677 24.0397 15.6221 24.2441C15.5769 24.4485 15.541 24.655 15.5152 24.8628C15.5123 24.8884 15.5084 24.9157 15.5064 24.9398L15.5044 25.0033C15.5018 25.0247 15.5056 25.0451 15.5085 25.0656C15.5125 25.0858 15.5106 25.1075 15.5184 25.1267C15.5359 25.2075 15.5788 25.2798 15.6316 25.343C15.6844 25.4073 15.7576 25.4543 15.8344 25.487C15.8725 25.5056 15.9141 25.5127 15.9546 25.5232C15.9961 25.5268 16.0375 25.5331 16.0788 25.528C16.1606 25.5215 16.2423 25.5002 16.3119 25.4535L16.3391 25.4383L16.3635 25.4179L16.4132 25.3775L16.5267 25.2663C16.8291 24.9694 17.1184 24.6591 17.3929 24.3362C17.9411 23.6897 18.4317 22.9944 18.8565 22.261L19.0121 21.984L19.0873 21.844L19.1249 21.774L19.1343 21.7565C19.1348 21.7545 19.1339 21.7555 19.1339 21.7555C19.1357 21.7548 19.1331 21.757 19.134 21.7588C19.1336 21.7706 19.1388 21.7729 19.1375 21.7718C19.1375 21.7718 19.1397 21.7734 19.1445 21.7728C19.1491 21.7719 19.1554 21.7707 19.1554 21.7697C19.1554 21.7697 19.1556 21.7696 19.1547 21.7697L19.1412 21.7834L19.1142 21.8109C19.0959 21.829 19.0783 21.8477 19.0608 21.8666C19.0253 21.9038 18.9914 21.9424 18.9574 21.9811C18.8232 22.137 18.7011 22.3037 18.5934 22.4793C18.5396 22.5672 18.4892 22.6571 18.4422 22.7488C18.4191 22.7949 18.3964 22.8411 18.375 22.8879L18.3434 22.9585L18.3279 22.9938L18.3177 23.0256C18.2567 23.1915 18.2556 23.3746 18.3315 23.532C18.4055 23.6884 18.5405 23.8214 18.7048 23.8809C18.785 23.9165 18.8726 23.9237 18.9582 23.9261C19.0437 23.9178 19.1304 23.9042 19.2099 23.8633L19.2703 23.8357L19.3384 23.7961C19.3836 23.7694 19.4296 23.7439 19.4741 23.7159C19.5641 23.6616 19.6527 23.6051 19.7405 23.5474C20.4421 23.0841 21.0705 22.5099 21.593 21.8519L21.5933 21.8516C21.6461 21.7851 21.7427 21.774 21.8092 21.8268C21.8757 21.8796 21.8868 21.9762 21.834 22.0427C21.2908 22.7269 20.6383 23.3229 19.91 23.8039C19.8188 23.8638 19.7268 23.9225 19.6334 23.9788C19.5872 24.0079 19.5394 24.0344 19.4925 24.0621L19.4216 24.1033L19.3365 24.1435C19.2239 24.1994 19.0957 24.2239 18.9687 24.2333C18.8413 24.2325 18.7114 24.2177 18.594 24.1676C18.3546 24.0786 18.161 23.8909 18.0524 23.6609C17.9409 23.4305 17.9416 23.1513 18.0296 22.9182L18.045 22.8737L18.0617 22.8355L18.0958 22.7594C18.1189 22.7088 18.1434 22.6589 18.1684 22.6093C18.219 22.5103 18.2734 22.4133 18.3315 22.3185C18.4477 22.1289 18.5796 21.9488 18.7248 21.7801C18.7616 21.7383 18.7983 21.6964 18.8367 21.6561C18.8557 21.6357 18.8748 21.6155 18.8946 21.5958L18.9239 21.5661L18.9385 21.5512C18.948 21.5426 18.9585 21.5337 18.9688 21.5255C19.0112 21.493 19.0685 21.4678 19.1272 21.4659C19.1855 21.4629 19.2413 21.4777 19.2881 21.5038C19.3806 21.5542 19.4499 21.6623 19.4406 21.782C19.4377 21.8098 19.4324 21.8396 19.4221 21.8634C19.4174 21.8753 19.4116 21.8889 19.4066 21.8991L19.397 21.917L19.3586 21.9885L19.2818 22.1316L19.1227 22.4148C18.6886 23.1644 18.1873 23.8747 17.6272 24.5352C17.3467 24.8652 17.0511 25.1822 16.7422 25.4856L16.6261 25.5993L16.5518 25.661L16.5138 25.6913L16.4716 25.7163C16.3617 25.7877 16.2297 25.8253 16.0995 25.8347C16.0336 25.8415 15.9685 25.8339 15.9035 25.8264C15.84 25.8119 15.7758 25.7984 15.7166 25.7709C15.5974 25.7206 15.4858 25.6468 15.4009 25.5461C15.3161 25.4469 15.2487 25.3284 15.2196 25.199C15.2089 25.1675 15.2087 25.1344 15.2033 25.102C15.199 25.0694 15.1944 25.0368 15.1971 25.0045L15.2007 24.9074L15.2102 24.8249C15.2372 24.6075 15.2747 24.3914 15.322 24.1776C15.3697 23.9638 15.4267 23.7521 15.4942 23.5437L15.5464 23.388L15.5739 23.3106C15.5801 23.2946 15.5787 23.2929 15.581 23.2859C15.5831 23.2799 15.5851 23.274 15.5844 23.2688C15.587 23.2471 15.5833 23.2289 15.5726 23.2106C15.5618 23.1926 15.5429 23.176 15.5216 23.1666C15.4759 23.1487 15.4423 23.1552 15.4035 23.1926L15.1838 23.427L14.7442 23.8958L14.3047 24.3646L14.0849 24.599L14.0575 24.6283L14.023 24.6623C14.0002 24.6859 13.9738 24.7058 13.9481 24.7264C13.8951 24.7654 13.8381 24.7998 13.777 24.8248C13.5334 24.931 13.247 24.9049 13.0222 24.7776L12.9469 24.7306C12.9299 24.7211 12.9138 24.7102 12.8954 24.7031C12.8601 24.6861 12.8213 24.6754 12.7811 24.6688C12.7006 24.6552 12.6135 24.6627 12.5301 24.686C12.3611 24.7336 12.2224 24.8486 12.1257 25.0069C12.0296 25.1641 11.9762 25.3546 11.9577 25.5487L11.6561 25.4949L11.6565 25.4933C11.8293 24.8002 11.9981 24.1061 12.1746 23.4141L12.3058 22.8947L12.3705 22.6373C12.39 22.5554 12.4052 22.4769 12.4108 22.4046C12.4162 22.3326 12.4126 22.2669 12.3952 22.2172C12.3782 22.1669 12.3526 22.1287 12.3111 22.0932C12.2244 22.0183 12.0997 21.9852 11.9784 22.0032C11.9176 22.011 11.8579 22.0325 11.8042 22.0627L11.7843 22.0745L11.7583 22.0916L11.704 22.1279L11.5955 22.2006C11.4488 22.2945 11.3102 22.4003 11.1702 22.5036C11.0991 22.5538 11.0329 22.6106 10.9651 22.6651C10.8978 22.7203 10.8295 22.7742 10.7631 22.8304L10.5683 23.0041L10.4707 23.0907L10.3768 23.1812C9.87386 23.6615 9.41871 24.1932 9.03641 24.7737C8.65258 25.3524 8.32655 25.9702 8.08427 26.6195L7.99378 26.863L7.91423 27.1102C7.85948 27.275 7.81184 27.4407 7.7776 27.6C7.70698 27.919 7.7046 28.2251 7.81305 28.4744C7.86511 28.5926 7.94587 28.6944 8.04149 28.7588C8.08944 28.791 8.13929 28.8164 8.19428 28.8287C8.24983 28.8428 8.30369 28.8515 8.35816 28.8459C8.46613 28.8398 8.58217 28.7947 8.69695 28.7153C8.81151 28.6361 8.92086 28.5266 9.02073 28.4048C9.12075 28.2825 9.21198 28.1466 9.29425 28.0043L9.35475 27.8955L9.41635 27.7786L9.53956 27.5447C9.62077 27.3883 9.69825 27.2299 9.77778 27.0727L10.0047 26.5953C10.5941 25.3148 11.0792 23.9862 11.4435 22.6249C11.5329 22.2841 11.6181 21.9422 11.6931 21.5981C11.7304 21.426 11.7686 21.254 11.8011 21.0809L11.8519 20.8217C11.8665 20.7403 11.8795 20.6608 11.8875 20.5818C11.9038 20.4249 11.9084 20.2687 11.8858 20.1355C11.8635 20.0017 11.8201 19.8942 11.7582 19.8341C11.7297 19.7999 11.6904 19.7787 11.6466 19.7559C11.5973 19.738 11.5474 19.719 11.4923 19.7167C11.3841 19.707 11.2645 19.7325 11.1576 19.7898C11.1433 19.7974 11.133 19.8033 11.1161 19.8137L11.0621 19.8488L10.9539 19.9192L10.7374 20.0596C10.595 20.1562 10.4598 20.2632 10.3192 20.3627C10.1823 20.4672 10.0515 20.5798 9.91712 20.6878C9.7866 20.8004 9.66204 20.9201 9.5339 21.0358C9.03748 21.5158 8.58798 22.0474 8.20167 22.6238C7.42569 23.7745 6.89165 25.0944 6.6551 26.4798C6.64096 26.5636 6.56157 26.6201 6.47779 26.6059C6.39887 26.5927 6.34429 26.5205 6.35002 26.4423Z" fill="url(#paint4_linear_1_27928)"/>
<path d="M22.3433 21.7693C22.2921 21.7693 22.2421 21.7438 22.2129 21.6972C22.1679 21.6253 22.1896 21.5304 22.2616 21.4853L23.7971 20.5234C23.869 20.4783 23.9639 20.5001 24.0089 20.5721C24.054 20.6441 24.0322 20.7389 23.9602 20.7839L22.4248 21.7458C22.3994 21.7617 22.3712 21.7693 22.3433 21.7693Z" fill="url(#paint5_linear_1_27928)"/>
<defs>
<linearGradient id="paint0_linear_1_27928" x1="4.73729" y1="7.12016" x2="25.6013" y2="7.12016" gradientUnits="userSpaceOnUse">
<stop stop-color="#DAE3FE"/>
<stop offset="1" stop-color="#E9EFFD"/>
</linearGradient>
<linearGradient id="paint1_linear_1_27928" x1="4.9873" y1="9.58634" x2="19.0117" y2="9.58634" gradientUnits="userSpaceOnUse">
<stop stop-color="#DAE3FE"/>
<stop offset="1" stop-color="#E9EFFD"/>
</linearGradient>
<linearGradient id="paint2_linear_1_27928" x1="4.40967" y1="13.0585" x2="25.2736" y2="13.0585" gradientUnits="userSpaceOnUse">
<stop stop-color="#DAE3FE"/>
<stop offset="1" stop-color="#E9EFFD"/>
</linearGradient>
<linearGradient id="paint3_linear_1_27928" x1="4.66016" y1="15.5248" x2="18.6845" y2="15.5248" gradientUnits="userSpaceOnUse">
<stop stop-color="#DAE3FE"/>
<stop offset="1" stop-color="#E9EFFD"/>
</linearGradient>
<linearGradient id="paint4_linear_1_27928" x1="18.2021" y1="15.6238" x2="10.9573" y2="29.4598" gradientUnits="userSpaceOnUse">
<stop stop-color="#09005D"/>
<stop offset="1" stop-color="#1A0F91"/>
</linearGradient>
<linearGradient id="paint5_linear_1_27928" x1="22.1895" y1="21.1346" x2="24.0324" y2="21.1346" gradientUnits="userSpaceOnUse">
<stop stop-color="#09005D"/>
<stop offset="1" stop-color="#1A0F91"/>
</linearGradient>
</defs>
</svg>
