<svg width="24" height="24" viewBox="0 0 24 24" fill="none" xmlns="http://www.w3.org/2000/svg">
<rect width="24" height="24" rx="12" transform="matrix(1 0 0 -1 0 24)" fill="#F1C21B"/>
<path d="M12 10.5999C11.672 10.5999 11.4 10.8719 11.4 11.1999V15.1999C11.4 15.5279 11.672 15.7999 12 15.7999C12.328 15.7999 12.6 15.5279 12.6 15.1999V11.1999C12.6 10.8719 12.328 10.5999 12 10.5999Z" fill="#262626"/>
<path d="M12 7.99995C11.896 7.99995 11.792 8.02395 11.696 8.06395C11.6 8.10395 11.512 8.15995 11.432 8.23195C11.36 8.31195 11.304 8.39195 11.264 8.49595C11.224 8.59195 11.2 8.69595 11.2 8.79995C11.2 8.90395 11.224 9.00795 11.264 9.10395C11.304 9.19995 11.36 9.28795 11.432 9.36795C11.512 9.43995 11.6 9.49595 11.696 9.53595C11.888 9.61595 12.112 9.61595 12.304 9.53595C12.4 9.49595 12.488 9.43995 12.568 9.36795C12.64 9.28795 12.696 9.19995 12.736 9.10395C12.776 9.00795 12.8 8.90395 12.8 8.79995C12.8 8.69595 12.776 8.59195 12.736 8.49595C12.696 8.39195 12.64 8.31195 12.568 8.23195C12.488 8.15995 12.4 8.10395 12.304 8.06395C12.208 8.02395 12.104 7.99995 12 7.99995Z" fill="#262626"/>
</svg>
