<svg width="12" height="12" viewBox="0 0 12 12" fill="none" xmlns="http://www.w3.org/2000/svg">
<g clip-path="url(#clip0_1_29826)">
<path d="M2.64645 4.85355C2.45118 4.65829 2.45118 4.3417 2.64645 4.14644C2.84171 3.95118 3.15829 3.95118 3.35355 4.14644L5.03388 5.82677L5.68373 5.29606C5.88793 5.1293 6.18653 5.14974 6.36609 5.34278L8.00142 7.10075L8.63523 6.42469C8.8241 6.22323 9.14051 6.21303 9.34197 6.40189C9.54343 6.59076 9.55363 6.90718 9.36477 7.10863L8.36477 8.1753C8.27001 8.27637 8.13757 8.3336 7.99903 8.33333C7.86049 8.33306 7.72827 8.27532 7.63391 8.17388L5.95319 6.36711L5.31627 6.88726C5.11744 7.04963 4.82796 7.03506 4.64645 6.85355L2.64645 4.85355Z" fill="#EE606B"/>
<path fill-rule="evenodd" clip-rule="evenodd" d="M2.5 1.5C1.39543 1.5 0.5 2.39543 0.5 3.5V8.5C0.5 9.60457 1.39543 10.5 2.5 10.5H9.5C10.6046 10.5 11.5 9.60457 11.5 8.5V3.5C11.5 2.39543 10.6046 1.5 9.5 1.5H2.5ZM1.5 3.5C1.5 2.94772 1.94772 2.5 2.5 2.5H9.5C10.0523 2.5 10.5 2.94772 10.5 3.5V8.5C10.5 9.05228 10.0523 9.5 9.5 9.5H2.5C1.94772 9.5 1.5 9.05228 1.5 8.5V3.5Z" fill="#EE606B"/>
</g>
<defs>
<clipPath id="clip0_1_29826">
<rect width="12" height="12" fill="white"/>
</clipPath>
</defs>
</svg>
