<svg width="20" height="20" viewBox="0 0 20 20" fill="none" xmlns="http://www.w3.org/2000/svg">
<path d="M9.6 8.19995C9.272 8.19995 9 8.47195 9 8.79995V12.8C9 13.128 9.272 13.4 9.6 13.4C9.928 13.4 10.2 13.128 10.2 12.8V8.79995C10.2 8.47195 9.928 8.19995 9.6 8.19995Z" fill="white"/>
<path d="M9.60005 5.59997C9.49605 5.59997 9.39205 5.62397 9.29605 5.66397C9.20005 5.70397 9.11205 5.75997 9.03205 5.83197C8.96005 5.91197 8.90405 5.99197 8.86405 6.09597C8.82405 6.19197 8.80005 6.29597 8.80005 6.39997C8.80005 6.50397 8.82405 6.60797 8.86405 6.70397C8.90405 6.79997 8.96005 6.88797 9.03205 6.96797C9.11205 7.03997 9.20005 7.09597 9.29605 7.13597C9.48805 7.21597 9.71205 7.21597 9.90405 7.13597C10 7.09597 10.088 7.03997 10.168 6.96797C10.24 6.88797 10.296 6.79997 10.336 6.70397C10.376 6.60797 10.4 6.50397 10.4 6.39997C10.4 6.29597 10.376 6.19197 10.336 6.09597C10.296 5.99197 10.24 5.91197 10.168 5.83197C10.088 5.75997 10 5.70397 9.90405 5.66397C9.80805 5.62397 9.70405 5.59997 9.60005 5.59997Z" fill="white"/>
</svg>
