<svg width="39" height="30" viewBox="0 0 39 30" fill="none" xmlns="http://www.w3.org/2000/svg">
<path d="M35.9805 12.5425H2.11182V29.3277H35.9805V12.5425Z" fill="#D7DDD8"/>
<path d="M5.14903 25.162H4.06631C4.01435 25.162 3.97217 25.2042 3.97217 25.2561V25.7072C3.97217 25.7592 4.01435 25.8013 4.06631 25.8013H5.14903C5.20099 25.8013 5.24317 25.7591 5.24317 25.7072V25.2561C5.24317 25.2042 5.20099 25.162 5.14903 25.162Z" fill="#CED7D8"/>
<path d="M3.44932 25.162H2.3666C2.31464 25.162 2.27246 25.2042 2.27246 25.2561V25.7072C2.27246 25.7592 2.31464 25.8013 2.3666 25.8013H3.44932C3.50137 25.8013 3.54346 25.7591 3.54346 25.7072V25.2561C3.54346 25.2042 3.50128 25.162 3.44932 25.162Z" fill="#CED7D8"/>
<path d="M4.29942 24.2378H3.2167C3.16465 24.2378 3.12256 24.28 3.12256 24.3319V24.783C3.12256 24.8349 3.16474 24.8771 3.2167 24.8771H4.29942C4.35138 24.8771 4.39356 24.8349 4.39356 24.783V24.3319C4.39356 24.2799 4.35138 24.2378 4.29942 24.2378Z" fill="#CED7D8"/>
<path d="M19.1285 22.7826H18.0458C17.9938 22.7826 17.9517 22.8248 17.9517 22.8767V23.3278C17.9517 23.3797 17.9938 23.4219 18.0458 23.4219H19.1285C19.1805 23.4219 19.2227 23.3797 19.2227 23.3278V22.8767C19.2227 22.8247 19.1805 22.7826 19.1285 22.7826Z" fill="#CED7D8"/>
<path d="M19.1285 20.8483H18.0458C17.9938 20.8483 17.9517 20.8904 17.9517 20.9424V21.3935C17.9517 21.4454 17.9938 21.4876 18.0458 21.4876H19.1285C19.1805 21.4876 19.2227 21.4454 19.2227 21.3935V20.9424C19.2227 20.8904 19.1805 20.8483 19.1285 20.8483Z" fill="#CED7D8"/>
<path d="M17.4288 22.7826H16.3461C16.2941 22.7826 16.252 22.8248 16.252 22.8767V23.3278C16.252 23.3797 16.2941 23.4219 16.3461 23.4219H17.4288C17.4809 23.4219 17.523 23.3797 17.523 23.3278V22.8767C17.523 22.8247 17.4809 22.7826 17.4288 22.7826Z" fill="#CED7D8"/>
<path d="M18.2789 21.8583H17.1962C17.1442 21.8583 17.1021 21.9005 17.1021 21.9524V22.4035C17.1021 22.4555 17.1442 22.4976 17.1962 22.4976H18.2789C18.3309 22.4976 18.373 22.4554 18.373 22.4035V21.9524C18.373 21.9004 18.331 21.8583 18.2789 21.8583Z" fill="#CED7D8"/>
<path d="M10.1349 16.8724H9.05215C9.00019 16.8724 8.95801 16.9146 8.95801 16.9666V17.4176C8.95801 17.4696 9.00019 17.5118 9.05215 17.5118H10.1349C10.1868 17.5118 10.229 17.4696 10.229 17.4176V16.9666C10.229 16.9145 10.1868 16.8724 10.1349 16.8724Z" fill="#CED7D8"/>
<path d="M8.43516 16.8724H7.35244C7.30048 16.8724 7.2583 16.9146 7.2583 16.9666V17.4176C7.2583 17.4696 7.30048 17.5118 7.35244 17.5118H8.43516C8.4872 17.5118 8.5293 17.4696 8.5293 17.4176V16.9666C8.5293 16.9145 8.48712 16.8724 8.43516 16.8724Z" fill="#CED7D8"/>
<path d="M18.0272 17.7395H3.54346V29.3277H18.0272V17.7395Z" fill="white"/>
<path d="M17.5616 18.1863H4.00928V29.3278H17.5616V18.1863Z" fill="#1D4535"/>
<path d="M17.4865 18.2524H4.08496V29.3278H17.4865V18.2524Z" fill="#A9B3B5"/>
<path d="M17.4865 27.9609H4.08496V28.0103H17.4865V27.9609Z" fill="#C2CBCC"/>
<path d="M17.4865 27.9115H4.08496V27.9609H17.4865V27.9115Z" fill="#9BA4A5"/>
<path d="M17.4865 26.5879H4.08496V26.6373H17.4865V26.5879Z" fill="#C2CBCC"/>
<path d="M17.4865 26.5386H4.08496V26.588H17.4865V26.5386Z" fill="#9BA4A5"/>
<path d="M17.4865 25.215H4.08496V25.2644H17.4865V25.215Z" fill="#C2CBCC"/>
<path d="M17.4865 25.1656H4.08496V25.2151H17.4865V25.1656Z" fill="#9BA4A5"/>
<path d="M17.4865 23.8419H4.08496V23.8913H17.4865V23.8419Z" fill="#C2CBCC"/>
<path d="M17.4865 23.7925H4.08496V23.8419H17.4865V23.7925Z" fill="#9BA4A5"/>
<path d="M17.4865 22.469H4.08496V22.5184H17.4865V22.469Z" fill="#C2CBCC"/>
<path d="M17.4865 22.4196H4.08496V22.469H17.4865V22.4196Z" fill="#9BA4A5"/>
<path d="M17.4865 21.0961H4.08496V21.1455H17.4865V21.0961Z" fill="#C2CBCC"/>
<path d="M17.4865 21.0466H4.08496V21.096H17.4865V21.0466Z" fill="#9BA4A5"/>
<path d="M17.4865 19.723H4.08496V19.7724H17.4865V19.723Z" fill="#C2CBCC"/>
<path d="M17.4865 19.6736H4.08496V19.723H17.4865V19.6736Z" fill="#9BA4A5"/>
<path d="M35.1209 6.50061H2.97077L0 15.8789H38.0917L35.1209 6.50061Z" fill="#181E26"/>
<g opacity="0.4">
<mask id="mask0_1_27689" style="mask-type:luminance" maskUnits="userSpaceOnUse" x="0" y="6" width="39" height="10">
<path d="M35.1209 6.50061H2.97077L0 15.8789H38.0917L35.1209 6.50061Z" fill="white"/>
</mask>
<g mask="url(#mask0_1_27689)">
<path d="M41.6036 15.6737H-3.96875V15.879H41.6036V15.6737Z" fill="#1D4535"/>
<path d="M41.6036 14.3633H-3.96875V14.5686H41.6036V14.3633Z" fill="#1D4535"/>
<path d="M41.6036 13.0529H-3.96875V13.2581H41.6036V13.0529Z" fill="#1D4535"/>
<path d="M41.6036 11.7423H-3.96875V11.9476H41.6036V11.7423Z" fill="#1D4535"/>
<path d="M41.6036 10.432H-3.96875V10.6373H41.6036V10.432Z" fill="#1D4535"/>
<path d="M41.6036 9.12158H-3.96875V9.32687H41.6036V9.12158Z" fill="#1D4535"/>
<path d="M41.6036 7.81116H-3.96875V8.01644H41.6036V7.81116Z" fill="#1D4535"/>
<path d="M41.6036 6.50061H-3.96875V6.7059H41.6036V6.50061Z" fill="#1D4535"/>
</g>
</g>
<path d="M32.823 3.49817H27.1299V6.50083H32.823V3.49817Z" fill="#D7DDD8"/>
<path d="M30.4166 5.47449H29.3339C29.2819 5.47449 29.2397 5.51667 29.2397 5.56863V6.01968C29.2397 6.07164 29.2819 6.11381 29.3339 6.11381H30.4166C30.4686 6.11381 30.5107 6.07164 30.5107 6.01968V5.56863C30.5107 5.51667 30.4687 5.47449 30.4166 5.47449Z" fill="#CED7D8"/>
<path d="M28.7169 5.47449H27.6342C27.5822 5.47449 27.54 5.51667 27.54 5.56863V6.01968C27.54 6.07164 27.5822 6.11381 27.6342 6.11381H28.7169C28.7689 6.11381 28.811 6.07164 28.811 6.01968V5.56863C28.811 5.51667 28.7689 5.47449 28.7169 5.47449Z" fill="#CED7D8"/>
<path d="M29.567 4.55029H28.4843C28.4323 4.55029 28.3901 4.59247 28.3901 4.64443V5.09548C28.3901 5.14744 28.4323 5.18962 28.4843 5.18962H29.567C29.619 5.18962 29.6611 5.14744 29.6611 5.09548V4.64443C29.6611 4.59239 29.619 4.55029 29.567 4.55029Z" fill="#CED7D8"/>
<path d="M33.0728 2.14746H26.8799V4.16315H33.0728V2.14746Z" fill="#181E26"/>
<path d="M33.0728 2.14746H26.8799V2.32477H33.0728V2.14746Z" fill="#1D4535"/>
<path d="M38.0918 15.879H0V16.5379H38.0918V15.879Z" fill="#7BB8EF"/>
<path d="M16.9964 5.60997L10.7863 1.11572L4.57617 5.60997V13.2569H16.9964V5.60997Z" fill="#EDF3F4"/>
<path d="M11.6197 5.31348H10.537C10.4851 5.31348 10.4429 5.35566 10.4429 5.40762V5.85867C10.4429 5.91062 10.4851 5.9528 10.537 5.9528H11.6197C11.6717 5.9528 11.7139 5.91062 11.7139 5.85867V5.40762C11.7139 5.35557 11.6718 5.31348 11.6197 5.31348Z" fill="#D7DDD8"/>
<path d="M9.92003 5.31348H8.8373C8.78526 5.31348 8.74316 5.35566 8.74316 5.40762V5.85867C8.74316 5.91062 8.78534 5.9528 8.8373 5.9528H9.92003C9.97198 5.9528 10.0142 5.91062 10.0142 5.85867V5.40762C10.0142 5.35557 9.97198 5.31348 9.92003 5.31348Z" fill="#D7DDD8"/>
<path d="M10.7701 4.38928H9.6874C9.63544 4.38928 9.59326 4.43146 9.59326 4.48342V4.93447C9.59326 4.98643 9.63544 5.02861 9.6874 5.02861H10.7701C10.8221 5.02861 10.8643 4.98643 10.8643 4.93447V4.48342C10.8643 4.43146 10.8221 4.38928 10.7701 4.38928Z" fill="#D7DDD8"/>
<path d="M8.22129 11.9147H7.13857C7.08661 11.9147 7.04443 11.9569 7.04443 12.0088V12.4599C7.04443 12.5118 7.08661 12.554 7.13857 12.554H8.22129C8.27325 12.554 8.31543 12.5118 8.31543 12.4599V12.0088C8.31543 11.9568 8.27334 11.9147 8.22129 11.9147Z" fill="#D7DDD8"/>
<path d="M6.5211 11.9147H5.43838C5.38633 11.9147 5.34424 11.9569 5.34424 12.0088V12.4599C5.34424 12.5118 5.38642 12.554 5.43838 12.554H6.5211C6.57306 12.554 6.61524 12.5118 6.61524 12.4599V12.0088C6.61524 11.9568 6.57306 11.9147 6.5211 11.9147Z" fill="#D7DDD8"/>
<path d="M7.3712 10.9905H6.28847C6.23652 10.9905 6.19434 11.0327 6.19434 11.0846V11.5357C6.19434 11.5876 6.23652 11.6298 6.28847 11.6298H7.3712C7.42315 11.6298 7.46534 11.5876 7.46534 11.5357V11.0846C7.46534 11.0326 7.42315 10.9905 7.3712 10.9905Z" fill="#D7DDD8"/>
<path d="M16.4542 10.2806H15.3715C15.3195 10.2806 15.2773 10.3228 15.2773 10.3748V10.8258C15.2773 10.8778 15.3195 10.92 15.3715 10.92H16.4542C16.5062 10.92 16.5483 10.8778 16.5483 10.8258V10.3748C16.5483 10.3228 16.5062 10.2806 16.4542 10.2806Z" fill="#D7DDD8"/>
<path d="M14.7545 10.2806H13.6718C13.6197 10.2806 13.5776 10.3228 13.5776 10.3748V10.8258C13.5776 10.8778 13.6198 10.92 13.6718 10.92H14.7545C14.8065 10.92 14.8486 10.8778 14.8486 10.8258V10.3748C14.8486 10.3228 14.8065 10.2806 14.7545 10.2806Z" fill="#D7DDD8"/>
<path d="M15.6041 9.35645H14.5214C14.4693 9.35645 14.4272 9.39863 14.4272 9.45058V9.90163C14.4272 9.95368 14.4694 9.99577 14.5214 9.99577H15.6041C15.6561 9.99577 15.6982 9.95359 15.6982 9.90163V9.45058C15.6982 9.39854 15.6561 9.35645 15.6041 9.35645Z" fill="#D7DDD8"/>
<g opacity="0.2">
<path d="M10.2287 12.156H6.07178V12.2608H10.2287V12.156Z" fill="#AEAEAE"/>
</g>
<path d="M10.2287 6.55688H6.07178V12.156H10.2287V6.55688Z" fill="white"/>
<path d="M9.94398 6.86304H6.35693V11.7721H9.94398V6.86304Z" fill="#B8E1FF"/>
<g opacity="0.2">
<path d="M7.00689 6.86304L6.35693 7.51299V9.91748L9.41129 6.86304H7.00689Z" fill="white"/>
<path d="M9.93684 6.86304L6.35693 10.4429V10.9044L9.94398 7.3174V6.86304H9.93684Z" fill="white"/>
<path d="M6.35693 11.7722H8.50971L9.94398 10.3379V7.93347L6.35693 11.5204V11.7722Z" fill="white"/>
<path d="M9.49658 11.7721L9.94397 11.3248V10.8633L9.03516 11.7721H9.49658Z" fill="white"/>
</g>
<g opacity="0.2">
<path d="M9.94398 10.6271H6.35693V10.7158H9.94398V10.6271Z" fill="#AEAEAE"/>
</g>
<g opacity="0.2">
<path d="M9.94398 9.48218H6.35693V9.57087H9.94398V9.48218Z" fill="#AEAEAE"/>
</g>
<g opacity="0.2">
<path d="M9.94398 8.33704H6.35693V8.42573H9.94398V8.33704Z" fill="#AEAEAE"/>
</g>
<g opacity="0.2">
<path d="M9.94398 6.86304H6.35693V6.95173H9.94398V6.86304Z" fill="#AEAEAE"/>
</g>
<path d="M9.94398 8.00806H6.35693V8.33699H9.94398V8.00806Z" fill="white"/>
<path d="M9.94398 9.15308H6.35693V9.48201H9.94398V9.15308Z" fill="white"/>
<path d="M8.31477 6.86304H7.98584V11.7721H8.31477V6.86304Z" fill="white"/>
<path d="M9.94398 10.2982H6.35693V10.6271H9.94398V10.2982Z" fill="white"/>
<g opacity="0.2">
<path d="M15.4914 12.156H11.3345V12.2608H15.4914V12.156Z" fill="#AEAEAE"/>
</g>
<path d="M15.4914 6.55688H11.3345V12.156H15.4914V6.55688Z" fill="white"/>
<path d="M15.2067 6.86304H11.6196V11.7721H15.2067V6.86304Z" fill="#B8E1FF"/>
<g opacity="0.2">
<path d="M12.2696 6.86304L11.6196 7.51299V9.91748L14.674 6.86304H12.2696Z" fill="white"/>
<path d="M15.1995 6.86304L11.6196 10.4429V10.9044L15.2067 7.3174V6.86304H15.1995Z" fill="white"/>
<path d="M11.6196 11.7722H13.7724L15.2067 10.3379V7.93347L11.6196 11.5204V11.7722Z" fill="white"/>
<path d="M14.7594 11.7721L15.2067 11.3248V10.8633L14.2979 11.7721H14.7594Z" fill="white"/>
</g>
<g opacity="0.2">
<path d="M15.2067 10.6271H11.6196V10.7158H15.2067V10.6271Z" fill="#AEAEAE"/>
</g>
<g opacity="0.2">
<path d="M15.2067 9.48218H11.6196V9.57087H15.2067V9.48218Z" fill="#AEAEAE"/>
</g>
<g opacity="0.2">
<path d="M15.2067 8.33704H11.6196V8.42573H15.2067V8.33704Z" fill="#AEAEAE"/>
</g>
<g opacity="0.2">
<path d="M15.2067 6.86304H11.6196V6.95173H15.2067V6.86304Z" fill="#AEAEAE"/>
</g>
<path d="M15.2067 8.00806H11.6196V8.33699H15.2067V8.00806Z" fill="white"/>
<path d="M15.2067 9.15308H11.6196V9.48201H15.2067V9.15308Z" fill="white"/>
<path d="M13.5775 6.86304H13.2485V11.7721H13.5775V6.86304Z" fill="white"/>
<path d="M15.2067 10.2982H11.6196V10.6271H15.2067V10.2982Z" fill="white"/>
<path d="M18.2472 5.41591L10.7862 0L3.32324 5.41591L4.14311 6.54583L10.7871 1.72417L17.4273 6.54583L18.2472 5.41591Z" fill="#1D4535"/>
<g opacity="0.2">
<path d="M4.57617 5.60997V6.88004L10.7871 2.37354L16.9964 6.87893V5.60997L10.7863 1.11572L4.57617 5.60997Z" fill="#AEAEAE"/>
</g>
<path d="M18.1447 5.56251L10.7859 0.224243L3.42871 5.56251L4.24858 6.69243L10.7867 1.94842L17.3248 6.69243L18.1447 5.56251Z" fill="white"/>
<path d="M34.7062 15.1039L27.131 9.6217L19.5557 15.1039V29.3277H34.7062V15.1039Z" fill="#EDF3F4"/>
<path d="M33.0926 16.7937L27.1308 12.4791L21.1689 16.7937V29.3277H33.0926V16.7937Z" fill="#D7DDD8"/>
<g opacity="0.15">
<path d="M27.1308 12.4791L21.1689 16.7937V17.1895L27.1308 12.8749L33.0926 17.1895V16.7937L27.1308 12.4791Z" fill="#AEAEAE"/>
</g>
<path d="M36.2319 14.8671L27.1309 8.26062L18.0273 14.8671L19.0274 16.2454L27.1318 10.3638L35.2318 16.2454L36.2319 14.8671Z" fill="#1D4535"/>
<g opacity="0.2">
<path d="M19.5557 15.1039V16.7298L27.1319 11.2326L34.7062 16.7284V15.1039L27.131 9.6217L19.5557 15.1039Z" fill="#AEAEAE"/>
</g>
<path d="M36.1072 15.0458L27.1308 8.53406L18.1562 15.0458L19.1563 16.4241L27.1317 10.6373L35.1072 16.4241L36.1072 15.0458Z" fill="white"/>
<path d="M32.5607 25.8124H31.4779C31.4259 25.8124 31.3838 25.8546 31.3838 25.9065V26.3576C31.3838 26.4096 31.426 26.4517 31.4779 26.4517H32.5607C32.6126 26.4517 32.6548 26.4095 32.6548 26.3576V25.9065C32.6548 25.8546 32.6126 25.8124 32.5607 25.8124Z" fill="#CED7D8"/>
<path d="M32.5607 23.9778H31.4779C31.4259 23.9778 31.3838 24.02 31.3838 24.0719V24.523C31.3838 24.575 31.426 24.6171 31.4779 24.6171H32.5607C32.6126 24.6171 32.6548 24.5749 32.6548 24.523V24.0719C32.6548 24.02 32.6126 23.9778 32.5607 23.9778Z" fill="#CED7D8"/>
<path d="M24.6197 25.0195H23.537C23.485 25.0195 23.4429 25.0617 23.4429 25.1137V25.5647C23.4429 25.6168 23.4851 25.6589 23.537 25.6589H24.6197C24.6717 25.6589 24.7139 25.6167 24.7139 25.5647V25.1137C24.7139 25.0616 24.6717 25.0195 24.6197 25.0195Z" fill="#CED7D8"/>
<path d="M22.92 25.0195H21.8373C21.7853 25.0195 21.7432 25.0617 21.7432 25.1137V25.5647C21.7432 25.6168 21.7853 25.6589 21.8373 25.6589H22.92C22.9721 25.6589 23.0142 25.6167 23.0142 25.5647V25.1137C23.0142 25.0616 22.972 25.0195 22.92 25.0195Z" fill="#CED7D8"/>
<path d="M23.7701 24.0952H22.6874C22.6354 24.0952 22.5933 24.1374 22.5933 24.1894V24.6404C22.5933 24.6924 22.6354 24.7345 22.6874 24.7345H23.7701C23.8221 24.7345 23.8643 24.6924 23.8643 24.6404V24.1894C23.8643 24.1373 23.8221 24.0952 23.7701 24.0952Z" fill="#CED7D8"/>
<path d="M28.5231 15.7583H27.4403C27.3884 15.7583 27.3462 15.8005 27.3462 15.8524V16.3035C27.3462 16.3554 27.3884 16.3976 27.4403 16.3976H28.5231C28.5751 16.3976 28.6172 16.3554 28.6172 16.3035V15.8524C28.6172 15.8005 28.5751 15.7583 28.5231 15.7583Z" fill="#CED7D8"/>
<path d="M26.8233 15.7583H25.7406C25.6886 15.7583 25.6465 15.8005 25.6465 15.8524V16.3035C25.6465 16.3554 25.6887 16.3976 25.7406 16.3976H26.8233C26.8753 16.3976 26.9175 16.3554 26.9175 16.3035V15.8524C26.9175 15.8005 26.8754 15.7583 26.8233 15.7583Z" fill="#CED7D8"/>
<path d="M27.6734 14.834H26.5907C26.5388 14.834 26.4966 14.8762 26.4966 14.9281V15.3792C26.4966 15.4312 26.5388 15.4733 26.5907 15.4733H27.6734C27.7254 15.4733 27.7676 15.4311 27.7676 15.3792V14.9281C27.7676 14.8762 27.7255 14.834 27.6734 14.834Z" fill="#CED7D8"/>
<path d="M31.3834 17.4043H22.8794V29.3277H31.3834V17.4043Z" fill="white"/>
<path d="M31.0342 17.7395H23.228V29.3277H31.0342V17.7395Z" fill="#7BB8EF"/>
<path d="M30.7229 29.3488H23.5391V18.0885H30.7229V29.3488ZM23.5816 29.3063H30.6803V18.131H23.5816V29.3063Z" fill="#5EA6DB"/>
<path d="M29.7663 18.7749H24.4961V22.98H29.7663V18.7749Z" fill="white"/>
<path d="M29.7873 29.3276H29.7448V23.5548H24.5171V29.3276H24.4746V23.5123H29.7873V29.3276Z" fill="#5EA6DB"/>
<path d="M29.4678 19.0575H24.7949V22.6974H29.4678V19.0575Z" fill="#D7DDD8"/>
<path d="M29.4145 19.1149H24.8486V22.64H29.4145V19.1149Z" fill="#B8E1FF"/>
<g opacity="0.2">
<path d="M25.2717 19.1149L24.8486 19.5379V21.9258L27.6595 19.1149H25.2717Z" fill="white"/>
<path d="M28.1814 19.1149L24.8486 22.4476V22.64H25.1145L28.6396 19.1149H28.1814Z" fill="white"/>
<path d="M29.2512 19.1149L25.7261 22.64H28.1139L29.4143 21.3396V19.1149H29.2512Z" fill="white"/>
<path d="M29.0939 22.6401L29.4143 22.3197V21.8615L28.6357 22.6401H29.0939Z" fill="white"/>
</g>
<path d="M25.396 23.8175H25.3535V29.0437H25.396V23.8175Z" fill="#5EA6DB"/>
<path d="M26.274 23.8175H26.2314V29.0437H26.274V23.8175Z" fill="#5EA6DB"/>
<path d="M27.1524 23.8175H27.1099V29.0437H27.1524V23.8175Z" fill="#5EA6DB"/>
<path d="M28.0308 23.8175H27.9883V29.0437H28.0308V23.8175Z" fill="#5EA6DB"/>
<path d="M28.9092 23.8175H28.8667V29.0437H28.9092V23.8175Z" fill="#5EA6DB"/>
</svg>
