<svg width="10" height="2" viewBox="0 0 10 2" fill="none" xmlns="http://www.w3.org/2000/svg">
<path d="M0.994318 1.98365C0.722538 1.98365 0.488873 1.88753 0.293324 1.6953C0.0977746 1.49975 0 1.26443 0 0.989333C0 0.717552 0.0977746 0.485545 0.293324 0.29331C0.488873 0.0977607 0.722538 -1.39475e-05 0.994318 -1.39475e-05C1.2661 -1.39475e-05 1.49976 0.0977607 1.69531 0.29331C1.89086 0.485545 1.98864 0.717552 1.98864 0.989333C1.98864 1.17162 1.94224 1.339 1.84943 1.49146C1.75994 1.64061 1.64062 1.75993 1.49148 1.84942C1.34233 1.93891 1.17661 1.98365 0.994318 1.98365ZM4.95916 1.98365C4.68738 1.98365 4.45372 1.88753 4.25817 1.6953C4.06262 1.49975 3.96484 1.26443 3.96484 0.989333C3.96484 0.717552 4.06262 0.485545 4.25817 0.29331C4.45372 0.0977607 4.68738 -1.39475e-05 4.95916 -1.39475e-05C5.23094 -1.39475e-05 5.46461 0.0977607 5.66016 0.29331C5.85571 0.485545 5.95348 0.717552 5.95348 0.989333C5.95348 1.17162 5.90708 1.339 5.81428 1.49146C5.72479 1.64061 5.60547 1.75993 5.45632 1.84942C5.30717 1.93891 5.14145 1.98365 4.95916 1.98365ZM8.92401 1.98365C8.65223 1.98365 8.41856 1.88753 8.22301 1.6953C8.02746 1.49975 7.92969 1.26443 7.92969 0.989333C7.92969 0.717552 8.02746 0.485545 8.22301 0.29331C8.41856 0.0977607 8.65223 -1.39475e-05 8.92401 -1.39475e-05C9.19579 -1.39475e-05 9.42945 0.0977607 9.625 0.29331C9.82055 0.485545 9.91832 0.717552 9.91832 0.989333C9.91832 1.17162 9.87192 1.339 9.77912 1.49146C9.68963 1.64061 9.57031 1.75993 9.42116 1.84942C9.27202 1.93891 9.1063 1.98365 8.92401 1.98365Z" fill="#6B7280"/>
</svg>
