<svg width="55" height="72" viewBox="0 0 55 72" fill="none" xmlns="http://www.w3.org/2000/svg">
<path fill-rule="evenodd" clip-rule="evenodd" d="M46.0003 21.0335C43.0402 19.0557 39.56 18 36 18V0C43.1201 0 50.0803 2.11136 56.0005 6.0671C61.9207 10.0228 66.5348 15.6453 69.2597 22.2233C71.9843 28.8014 72.6973 36.04 71.3083 43.0232C69.9192 50.0065 66.4906 56.4212 61.4558 61.4558C56.4212 66.4906 50.0065 69.9192 43.0232 71.3083C36.04 72.6973 28.8014 71.9843 22.2233 69.2597C15.6453 66.5348 10.0228 61.9207 6.0671 56.0005C2.11136 50.0803 0 43.1201 0 36H18C18 39.56 19.0557 43.0402 21.0335 46.0003C23.0114 48.9604 25.8226 51.2674 29.1118 52.6298C32.4007 53.9923 36.02 54.3487 39.5116 53.654C43.0033 52.9596 46.2105 51.2453 48.728 48.728C51.2453 46.2105 52.9596 43.0033 53.654 39.5116C54.3487 36.02 53.9923 32.4007 52.6298 29.1118C51.2674 25.8226 48.9604 23.0114 46.0003 21.0335Z" fill="white"/>
</svg>
